<?xml version="1.0" encoding="utf-8"?>
<!-- Generator: Adobe Illustrator 16.2.1, SVG Export Plug-In . SVG Version: 6.00 Build 0)  -->
<!DOCTYPE svg PUBLIC "-//W3C//DTD SVG 1.1//EN" "http://www.w3.org/Graphics/SVG/1.1/DTD/svg11.dtd">
<svg version="1.1" id="Layer_1" xmlns="http://www.w3.org/2000/svg" xmlns:xlink="http://www.w3.org/1999/xlink" x="0px" y="0px"
	 width="90px" height="90px" viewBox="0 0 90 90" enable-background="new 0 0 90 90" xml:space="preserve">
<g>
	<g>
		<path d="M79.249,20.672H38.6L27.937,36l31-0.25L50.187,45l8.75,9.25l-31-0.25L38.6,69.328h40.649c3.211,0,5.814-2.604,5.814-5.814
			V26.487C85.063,23.275,82.46,20.672,79.249,20.672z M76.687,54h-8.75l-9-9l9-9h8.75l-8.875,9L76.687,54z"/>
	</g>
	<g>
		<g>
			<path d="M39.937,18.75l-12,17.25l31-0.25L50.187,45l8.75,9.25l-31-0.25l12,17.25h-17.75L4.937,45l17.25-26.25H39.937
				 M45.678,15.75h-5.741h-17.75h-1.618l-0.889,1.353L2.43,43.353L1.347,45l1.083,1.647l17.25,26.25l0.889,1.353h1.618h17.75h5.741
				l-3.278-4.713l-8.688-12.49l25.201,0.203l7.046,0.057l-4.842-5.118L54.316,45l6.8-7.188l4.842-5.118l-7.046,0.057l-25.201,0.203
				l8.688-12.49L45.678,15.75L45.678,15.75z"/>
		</g>
		<g>
			<path d="M76.687,36l-8.875,9l8.875,9h-8.75l-9-9l9-9H76.687 M83.858,33h-7.172h-8.75h-1.242l-0.879,0.879l-9,9L54.694,45
				l2.121,2.121l9,9L66.694,57h1.242h8.75h7.172l-5.036-5.106L72.024,45l6.798-6.894L83.858,33L83.858,33z"/>
		</g>
	</g>
</g>
</svg>
