<?xml version="1.0" encoding="utf-8"?>
<!-- Generator: Adobe Illustrator 16.2.1, SVG Export Plug-In . SVG Version: 6.00 Build 0)  -->
<!DOCTYPE svg PUBLIC "-//W3C//DTD SVG 1.1//EN" "http://www.w3.org/Graphics/SVG/1.1/DTD/svg11.dtd">
<svg version="1.1" id="Layer_1" xmlns="http://www.w3.org/2000/svg" xmlns:xlink="http://www.w3.org/1999/xlink" x="0px" y="0px"
	 width="90px" height="90px" viewBox="0 0 90 90" enable-background="new 0 0 90 90" xml:space="preserve">
<g>
	<g>
		<path d="M78.812,16.792c2.206,0,4,1.794,4,4v4.355v5.395V56.23c0,2.43-2.056,5-4,5H30.395c-2.206,0-4-1.794-4-4V25.147
			c0-2.206,1.794-4,4-4h28.854h2.016l0.762-1.866c0.617-1.512,2.07-2.489,3.701-2.489H78.812 M78.812,13.792H65.728
			c-2.93,0-5.436,1.801-6.479,4.355H30.395c-3.866,0-7,3.133-7,7V57.23c0,3.865,3.134,7,7,7h48.417c3.865,0,7-4.135,7-8V30.542
			v-5.395v-4.355C85.812,16.927,82.677,13.792,78.812,13.792L78.812,13.792z"/>
	</g>
	<g>
		<polygon points="56.688,63.625 56.688,45.875 39.438,57.875 39.688,26.874 30.438,35.624 21.188,26.874 21.438,57.875 
			4.188,45.875 4.188,63.625 30.438,80.875 		"/>
		<polygon points="39.438,17.874 39.438,9.124 30.438,17.999 21.438,9.124 21.438,17.874 30.438,26.874 		"/>
	</g>
</g>
</svg>
