<?xml version="1.0" encoding="utf-8"?>
<!-- Generator: Adobe Illustrator 16.2.1, SVG Export Plug-In . SVG Version: 6.00 Build 0)  -->
<!DOCTYPE svg PUBLIC "-//W3C//DTD SVG 1.1//EN" "http://www.w3.org/Graphics/SVG/1.1/DTD/svg11.dtd">
<svg version="1.1" id="Layer_1" xmlns="http://www.w3.org/2000/svg" xmlns:xlink="http://www.w3.org/1999/xlink" x="0px" y="0px"
	 width="90px" height="90px" viewBox="0 0 90 90" enable-background="new 0 0 90 90" xml:space="preserve">
<g>
	<g>
		<path d="M66.711,10.352h-47.44c-3.212,0-5.815,2.604-5.815,5.814v37.026c0,3.212,2.604,5.815,5.815,5.815h23.663
			c0.302-1.623,0.96-3.184,1.96-4.675c0.221-0.329,0.469-0.64,0.704-0.959c0.051-0.068,0.103-0.136,0.192-0.255
			c-0.27,0.029-0.483,0.05-0.696,0.076c-1.62,0.196-3.242,0.216-4.868,0.061c-2.192-0.209-4.309-0.719-6.344-1.562
			c-1.719-0.712-3.324-1.616-4.722-2.858c-1.039-0.924-1.897-1.987-2.426-3.289c-0.375-0.925-0.523-1.879-0.326-2.871
			c0.095-0.474,0.31-0.894,0.573-1.292c0.344-0.52,0.764-0.974,1.213-1.402c0.716-0.684,1.5-1.283,2.309-1.853
			c0.085-0.061,0.169-0.122,0.233-0.169c-0.175-0.188-0.337-0.367-0.504-0.542c-0.768-0.805-1.29-1.736-1.445-2.851
			c-0.179-1.279,0.072-2.466,0.801-3.539c0.533-0.786,1.216-1.431,1.983-1.98c0.463-0.332,0.956-0.624,1.436-0.933
			c0.079-0.052,0.162-0.099,0.241-0.146c-0.11-0.368-0.237-0.713-0.316-1.069c-0.515-2.313,0.256-4.173,2.062-5.628
			c0.964-0.777,2.106-1.217,3.29-1.541c1.916-0.525,3.864-0.657,5.841-0.483c3.436,0.303,6.195,1.876,8.424,4.448
			c0.188,0.215,0.373,0.353,0.654,0.423c1.621,0.408,2.912,1.328,3.914,2.648c1.205,1.588,1.846,3.384,1.896,5.384
			c0.027,1.076-0.014,2.147-0.273,3.2c-0.203,0.827-0.529,1.596-1.033,2.286c-0.029,0.038-0.053,0.081-0.084,0.133
			c0.182,0.403,0.363,0.809,0.547,1.214c0.486,1.076,0.943,2.164,1.221,3.317c0.355,1.467,0.393,2.929-0.084,4.381
			c-0.34,1.036-0.889,1.954-1.6,2.773c-0.336,0.387-0.688,0.766-1.07,1.103c-0.793,0.695-1.396,1.527-1.865,2.461
			c-0.879,1.75-1.332,3.605-1.326,5.566c0,0.142,0.023,0.282,0.029,0.423h13.236c3.211,0,5.814-2.604,5.814-5.815V16.166
			C72.525,12.955,69.922,10.352,66.711,10.352z"/>
	</g>
	<g id="HGrWGM_5_">
		<g>
			<path fill="none" d="M79.305,11.041c0,22.87,0,45.739,0,68.608c-22.869,0-45.739,0-68.609,0c0-22.869,0-45.738,0-68.608
				C33.565,11.041,56.436,11.041,79.305,11.041z M58.863,37.742c0.031-0.052,0.055-0.094,0.084-0.133
				c0.504-0.689,0.83-1.458,1.033-2.285c0.26-1.053,0.301-2.124,0.273-3.201c-0.051-1.999-0.691-3.795-1.896-5.383
				c-1.004-1.32-2.293-2.24-3.914-2.648c-0.281-0.071-0.467-0.208-0.654-0.422c-2.229-2.573-4.988-4.146-8.424-4.449
				c-1.977-0.174-3.925-0.042-5.841,0.483c-1.184,0.324-2.326,0.764-3.29,1.541c-1.807,1.456-2.578,3.314-2.062,5.628
				c0.08,0.356,0.206,0.702,0.316,1.07c-0.079,0.047-0.162,0.094-0.241,0.146c-0.479,0.309-0.972,0.601-1.436,0.933
				c-0.768,0.55-1.45,1.194-1.983,1.981c-0.729,1.073-0.98,2.26-0.801,3.539c0.154,1.114,0.678,2.045,1.445,2.851
				c0.167,0.174,0.329,0.353,0.504,0.542c-0.064,0.047-0.148,0.109-0.234,0.169c-0.808,0.569-1.592,1.168-2.308,1.852
				c-0.449,0.429-0.869,0.883-1.214,1.403c-0.263,0.398-0.478,0.818-0.572,1.292c-0.197,0.992-0.049,1.946,0.326,2.871
				c0.527,1.301,1.387,2.365,2.426,3.289c1.396,1.242,3.003,2.146,4.723,2.858c2.034,0.843,4.15,1.353,6.344,1.562
				c1.625,0.154,3.247,0.136,4.867-0.061c0.213-0.026,0.428-0.047,0.697-0.076c-0.092,0.119-0.143,0.188-0.193,0.255
				c-0.236,0.319-0.484,0.63-0.705,0.96c-1.986,2.963-2.631,6.197-1.785,9.664c0.74,3.039,2.285,5.653,4.549,7.825
				c0.654,0.627,1.391,1.145,2.236,1.487c0.686,0.277,1.389,0.395,2.131,0.271c1.033-0.172,2.469-1.206,2.756-2.509
				c0.135-0.61,0.189-1.224,0.188-1.844c-0.006-1.154-0.146-2.298-0.352-3.432c-0.277-1.543-0.578-3.08-0.863-4.621
				c-0.16-0.856-0.305-1.717-0.307-2.592c-0.006-1.96,0.447-3.815,1.326-5.566c0.469-0.934,1.072-1.765,1.865-2.459
				c0.383-0.338,0.734-0.717,1.07-1.104c0.711-0.819,1.26-1.736,1.6-2.773c0.477-1.452,0.439-2.914,0.084-4.381
				c-0.277-1.153-0.734-2.241-1.221-3.317C59.227,38.551,59.045,38.146,58.863,37.742z"/>
			<path fill-rule="evenodd" clip-rule="evenodd" d="M58.863,37.742c0.182,0.404,0.363,0.81,0.547,1.214
				c0.486,1.076,0.943,2.164,1.221,3.317c0.355,1.467,0.393,2.929-0.084,4.381c-0.34,1.037-0.889,1.954-1.6,2.773
				c-0.336,0.387-0.688,0.766-1.07,1.104c-0.793,0.694-1.396,1.525-1.865,2.459c-0.879,1.751-1.332,3.606-1.326,5.566
				c0.002,0.875,0.146,1.735,0.307,2.592c0.285,1.541,0.586,3.078,0.863,4.621c0.205,1.134,0.346,2.277,0.352,3.432
				c0.002,0.62-0.053,1.233-0.188,1.844c-0.287,1.303-1.723,2.337-2.756,2.509c-0.742,0.124-1.445,0.007-2.131-0.271
				c-0.846-0.343-1.582-0.86-2.236-1.487c-2.264-2.172-3.809-4.786-4.549-7.825c-0.846-3.467-0.201-6.701,1.785-9.664
				c0.221-0.33,0.469-0.641,0.705-0.96c0.051-0.067,0.102-0.136,0.193-0.255c-0.27,0.029-0.484,0.05-0.697,0.076
				c-1.62,0.196-3.242,0.215-4.867,0.061c-2.193-0.209-4.31-0.719-6.344-1.562c-1.72-0.712-3.326-1.616-4.723-2.858
				c-1.039-0.924-1.898-1.988-2.426-3.289c-0.375-0.925-0.523-1.879-0.326-2.871c0.095-0.474,0.31-0.894,0.572-1.292
				c0.345-0.52,0.765-0.974,1.214-1.403c0.716-0.684,1.5-1.283,2.308-1.852c0.086-0.06,0.17-0.122,0.234-0.169
				c-0.175-0.188-0.337-0.367-0.504-0.542c-0.768-0.806-1.291-1.737-1.445-2.851c-0.18-1.279,0.072-2.465,0.801-3.539
				c0.533-0.787,1.216-1.431,1.983-1.981c0.464-0.332,0.956-0.624,1.436-0.933c0.079-0.051,0.162-0.098,0.241-0.146
				c-0.11-0.368-0.236-0.714-0.316-1.07c-0.516-2.314,0.256-4.172,2.062-5.628c0.964-0.777,2.106-1.217,3.29-1.541
				c1.916-0.525,3.864-0.657,5.841-0.483c3.436,0.302,6.195,1.876,8.424,4.449c0.188,0.214,0.373,0.352,0.654,0.422
				c1.621,0.409,2.91,1.328,3.914,2.648c1.205,1.588,1.846,3.384,1.896,5.383c0.027,1.077-0.014,2.148-0.273,3.201
				c-0.203,0.827-0.529,1.596-1.033,2.285C58.918,37.647,58.895,37.69,58.863,37.742z M46.068,43.919
				c-0.043,0.026-0.076,0.042-0.106,0.064c-0.8,0.59-1.679,1.036-2.592,1.417c-1.39,0.579-2.828,0.992-4.313,1.237
				c-0.292,0.048-0.295,0.045-0.426-0.212c0.193-0.032,0.385-0.055,0.572-0.096c1.19-0.256,2.309-0.711,3.402-1.232
				c0.894-0.425,1.758-0.902,2.535-1.519c0.512-0.405,0.995-0.838,1.172-1.533c0.33,0.023,0.654,0.045,0.99,0.069
				C47.27,42.61,47,42.954,46.736,43.302c0.031,0.039,0.051,0.072,0.078,0.099c0.992,0.958,2.098,1.742,3.4,2.227
				c0.959,0.355,1.938,0.439,2.939,0.207c1.348-0.312,2.148-1.192,2.342-2.553c0.107-0.743,0.025-1.468-0.16-2.185
				c-0.402-1.555-1.178-2.919-2.17-4.166c-0.963-1.209-2.088-2.232-3.463-2.962c-0.887-0.472-1.83-0.716-2.836-0.744
				c-1.438-0.041-2.834,0.2-4.214,0.568c-2.615,0.698-5.073,1.776-7.413,3.125c-1.447,0.833-2.816,1.776-4.029,2.932
				c-0.697,0.665-1.327,1.382-1.77,2.249c-0.385,0.755-0.471,1.545-0.3,2.37c0.199,0.959,0.658,1.792,1.246,2.561
				c0.923,1.209,2.11,2.098,3.435,2.812c2.801,1.511,5.816,2.24,8.974,2.441c1.667,0.105,3.327,0.02,4.981-0.221
				c0.176-0.025,0.297-0.102,0.424-0.216c0.607-0.54,1.223-1.07,1.838-1.603c0.057-0.048,0.125-0.081,0.16-0.104
				c0.117,0.088,0.213,0.16,0.32,0.242c-0.113,0.09-0.188,0.15-0.264,0.211c-1.154,0.908-2.197,1.926-3.068,3.113
				c-1.783,2.432-2.605,5.143-2.321,8.157c0.216,2.286,1.026,4.358,2.378,6.214c0.822,1.131,1.799,2.103,3.006,2.824
				c0.484,0.289,0.994,0.522,1.549,0.645c0.904,0.199,1.625-0.12,2.088-0.923c0.215-0.372,0.348-0.776,0.438-1.194
				c0.256-1.166,0.236-2.348,0.154-3.527c-0.109-1.614-0.367-3.21-0.713-4.79c-0.305-1.405-0.396-2.817-0.184-4.239
				c0.395-2.635,1.541-4.887,3.449-6.753c0.449-0.438,0.875-0.905,1.275-1.389c0.641-0.774,1.131-1.638,1.424-2.607
				c0.387-1.286,0.34-2.58,0.084-3.878c-0.27-1.373-0.729-2.686-1.24-3.983c-0.014-0.032-0.033-0.062-0.066-0.124
				c-0.408,0.409-0.83,0.753-1.326,1.039c-0.053-0.108-0.092-0.191-0.137-0.287c0.742-0.42,1.195-1.058,1.518-1.802
				c0.047-0.106,0.088-0.215,0.129-0.324c0.268-0.722,0.406-1.472,0.484-2.235c0.107-1.062,0.156-2.129,0.01-3.188
				c-0.369-2.678-1.756-4.666-4.133-5.958c-0.062-0.034-0.129-0.057-0.236-0.104c0.051,0.154,0.088,0.261,0.123,0.37
				c0.395,1.244,0.146,2.332-0.805,3.237c-0.215,0.206-0.467,0.375-0.703,0.561c-0.059,0.046-0.117,0.092-0.182,0.142
				c0.049,0.092,0.09,0.168,0.131,0.244c0.258,0.479,0.465,0.978,0.615,1.5c0.277,0.961,0.373,1.936,0.215,2.929
				c-0.102,0.633-0.338,1.208-0.74,1.701c0.014,0.032,0.018,0.052,0.029,0.066c0.049,0.06,0.1,0.118,0.15,0.177
				c0.977,1.141,1.783,2.388,2.328,3.792c0.408,1.047,0.664,2.123,0.564,3.259c-0.139,1.588-0.957,2.668-2.449,3.215
				c-1.336,0.49-2.689,0.496-4.039,0.033c-1.447-0.498-2.672-1.348-3.772-2.391C46.213,44.052,46.143,43.987,46.068,43.919z
				 M33.155,37.15c0.132-0.08,0.24-0.143,0.345-0.209c2.632-1.669,5.431-2.966,8.438-3.797c1.338-0.369,2.695-0.612,4.086-0.672
				c1.842-0.081,3.531,0.369,5.041,1.431c0.49,0.344,0.947,0.736,1.418,1.107c0.08,0.064,0.154,0.138,0.264,0.237
				c0.111-0.244,0.225-0.447,0.301-0.663c0.32-0.9,0.324-1.823,0.145-2.749c-0.234-1.196-0.85-2.194-1.676-3.066
				c-1.213-1.28-2.715-2.065-4.408-2.505c-1.206-0.313-2.436-0.31-3.664-0.215c-1.859,0.143-3.673,0.533-5.438,1.142
				c-1.441,0.498-2.819,1.129-4.059,2.032c-0.639,0.464-1.215,0.993-1.676,1.637c-0.604,0.845-0.941,1.78-0.875,2.827
				C31.486,35.076,32.176,36.171,33.155,37.15z M52.785,28.886c0.559-0.441,0.988-0.958,1.191-1.643
				c0.229-0.768,0.074-1.494-0.254-2.197c-0.273-0.584-0.654-1.097-1.098-1.561c-1.25-1.305-2.744-2.23-4.453-2.801
				c-2.344-0.784-4.745-0.985-7.189-0.628c-0.932,0.136-1.836,0.385-2.688,0.8c-1.027,0.5-1.831,1.224-2.289,2.289
				c-0.565,1.313-0.512,2.636-0.031,3.96c0.012,0.033,0.045,0.057,0.068,0.085c0.065-0.025,0.119-0.044,0.174-0.066
				c2.713-1.122,5.529-1.805,8.469-1.939c0.941-0.043,1.877,0.012,2.791,0.266c2.07,0.576,3.844,1.614,5.197,3.312
				C52.705,28.8,52.738,28.833,52.785,28.886z"/>
			<path fill-rule="evenodd" clip-rule="evenodd" fill="none" d="M46.068,43.919c0.074,0.068,0.145,0.133,0.214,0.198
				c1.101,1.043,2.325,1.893,3.772,2.391c1.35,0.463,2.703,0.457,4.039-0.033c1.492-0.547,2.311-1.627,2.449-3.215
				c0.1-1.137-0.156-2.212-0.564-3.259c-0.545-1.404-1.352-2.651-2.328-3.792c-0.051-0.059-0.102-0.117-0.15-0.177
				c-0.012-0.014-0.016-0.034-0.029-0.066c0.402-0.493,0.639-1.068,0.74-1.701c0.158-0.993,0.062-1.967-0.215-2.929
				c-0.15-0.523-0.357-1.021-0.615-1.5c-0.041-0.076-0.082-0.152-0.131-0.244c0.064-0.05,0.123-0.096,0.182-0.142
				c0.236-0.186,0.488-0.354,0.703-0.561c0.951-0.906,1.199-1.994,0.805-3.237c-0.035-0.108-0.072-0.216-0.123-0.37
				c0.107,0.046,0.174,0.069,0.236,0.104c2.377,1.292,3.764,3.28,4.133,5.958c0.146,1.059,0.098,2.126-0.01,3.188
				c-0.078,0.763-0.217,1.513-0.484,2.235c-0.041,0.109-0.082,0.218-0.129,0.324c-0.322,0.744-0.775,1.382-1.518,1.802
				c0.045,0.096,0.084,0.178,0.137,0.287c0.496-0.285,0.918-0.63,1.326-1.039c0.033,0.062,0.053,0.092,0.066,0.124
				c0.512,1.297,0.971,2.611,1.24,3.983c0.256,1.298,0.303,2.592-0.084,3.878c-0.293,0.97-0.783,1.833-1.424,2.607
				c-0.4,0.483-0.826,0.95-1.275,1.389c-1.908,1.866-3.055,4.118-3.449,6.753c-0.213,1.422-0.121,2.834,0.184,4.239
				c0.346,1.58,0.604,3.176,0.713,4.79c0.082,1.18,0.102,2.361-0.154,3.527c-0.09,0.418-0.223,0.822-0.438,1.194
				c-0.463,0.803-1.184,1.122-2.088,0.923c-0.555-0.122-1.064-0.355-1.549-0.645c-1.207-0.722-2.184-1.693-3.006-2.824
				c-1.352-1.855-2.162-3.928-2.378-6.214c-0.284-3.015,0.538-5.726,2.321-8.157c0.871-1.188,1.914-2.205,3.068-3.113
				c0.076-0.061,0.15-0.121,0.264-0.211c-0.107-0.082-0.203-0.154-0.32-0.242c-0.035,0.022-0.104,0.056-0.16,0.104
				c-0.615,0.532-1.23,1.062-1.838,1.603c-0.127,0.114-0.248,0.19-0.424,0.216c-1.654,0.24-3.314,0.326-4.981,0.221
				c-3.157-0.201-6.173-0.931-8.974-2.441c-1.324-0.715-2.512-1.604-3.435-2.812c-0.588-0.77-1.047-1.602-1.246-2.561
				c-0.171-0.825-0.085-1.615,0.3-2.37c0.442-0.867,1.072-1.584,1.77-2.249c1.213-1.156,2.582-2.099,4.029-2.932
				c2.34-1.349,4.798-2.427,7.413-3.125c1.38-0.369,2.776-0.609,4.214-0.568c1.006,0.028,1.949,0.272,2.836,0.744
				c1.375,0.73,2.5,1.753,3.463,2.962c0.992,1.247,1.768,2.611,2.17,4.166c0.186,0.717,0.268,1.442,0.16,2.185
				c-0.193,1.361-0.994,2.242-2.342,2.553c-1.002,0.232-1.98,0.148-2.939-0.207c-1.303-0.484-2.408-1.269-3.4-2.227
				c-0.027-0.026-0.047-0.06-0.078-0.099c0.264-0.348,0.533-0.691,0.566-1.187c-0.336-0.023-0.66-0.046-0.99-0.069
				c-0.177,0.694-0.66,1.127-1.172,1.533c-0.777,0.617-1.642,1.094-2.535,1.519c-1.094,0.521-2.212,0.977-3.402,1.232
				c-0.188,0.041-0.379,0.063-0.572,0.096c0.131,0.257,0.134,0.26,0.426,0.212c1.485-0.245,2.924-0.658,4.313-1.237
				c0.913-0.381,1.792-0.827,2.592-1.417C45.992,43.961,46.025,43.945,46.068,43.919z"/>
			<path fill-rule="evenodd" clip-rule="evenodd" fill="none" d="M33.155,37.15c-0.979-0.979-1.669-2.074-1.759-3.463
				c-0.066-1.046,0.271-1.982,0.875-2.827c0.461-0.645,1.037-1.173,1.676-1.637c1.239-0.903,2.617-1.534,4.059-2.032
				c1.765-0.608,3.578-0.999,5.438-1.142c1.229-0.095,2.458-0.099,3.664,0.215c1.693,0.44,3.195,1.225,4.408,2.505
				c0.826,0.872,1.441,1.87,1.676,3.066c0.18,0.926,0.176,1.849-0.145,2.749c-0.076,0.216-0.189,0.419-0.301,0.663
				c-0.109-0.099-0.184-0.172-0.264-0.237c-0.471-0.372-0.928-0.763-1.418-1.107c-1.51-1.062-3.199-1.512-5.041-1.431
				c-1.391,0.06-2.748,0.303-4.086,0.672c-3.007,0.831-5.806,2.128-8.438,3.797C33.396,37.007,33.287,37.07,33.155,37.15z"/>
			<path fill-rule="evenodd" clip-rule="evenodd" fill="none" d="M52.785,28.886c-0.047-0.052-0.08-0.085-0.111-0.123
				c-1.354-1.698-3.127-2.736-5.197-3.312c-0.914-0.254-1.85-0.309-2.791-0.266c-2.939,0.135-5.756,0.817-8.469,1.939
				c-0.055,0.022-0.108,0.042-0.174,0.066c-0.023-0.028-0.057-0.053-0.068-0.085c-0.48-1.324-0.534-2.646,0.031-3.96
				c0.458-1.065,1.262-1.79,2.289-2.289c0.852-0.415,1.756-0.664,2.688-0.8c2.444-0.357,4.846-0.156,7.189,0.628
				c1.709,0.571,3.203,1.496,4.453,2.801c0.443,0.464,0.824,0.977,1.098,1.561c0.328,0.703,0.482,1.429,0.254,2.197
				C53.773,27.928,53.344,28.445,52.785,28.886z"/>
		</g>
	</g>
</g>
</svg>
