<?xml version="1.0" encoding="utf-8"?>
<!-- Generator: Adobe Illustrator 16.2.1, SVG Export Plug-In . SVG Version: 6.00 Build 0)  -->
<!DOCTYPE svg PUBLIC "-//W3C//DTD SVG 1.1//EN" "http://www.w3.org/Graphics/SVG/1.1/DTD/svg11.dtd">
<svg version="1.1" id="Layer_1" xmlns="http://www.w3.org/2000/svg" xmlns:xlink="http://www.w3.org/1999/xlink" x="0px" y="0px"
	 width="90px" height="90px" viewBox="0 0 90 90" enable-background="new 0 0 90 90" xml:space="preserve">
<g>
	<g>
		
			<rect x="66.949" y="14.841" transform="matrix(-0.7071 -0.7071 0.7071 -0.7071 116.0351 86.5794)" width="17.999" height="8.834"/>
		<polygon points="76.361,31.573 63.633,31.573 63.633,18.845 24.193,58.25 24.193,70.977 36.803,71.096 		"/>
	</g>
	<g>
		<path d="M57.818,34.573c1.552,0,2.814,1.264,2.814,2.816v37.024c0,1.552-1.263,2.814-2.814,2.814H10.379
			c-1.553,0-2.815-1.263-2.815-2.814V37.39c0-1.553,1.263-2.816,2.815-2.816H57.818 M57.818,31.573H10.379
			c-3.212,0-5.815,2.604-5.815,5.816v37.024c0,3.211,2.604,5.814,5.815,5.814h47.439c3.211,0,5.814-2.604,5.814-5.814V37.39
			C63.633,34.177,61.029,31.573,57.818,31.573L57.818,31.573z"/>
	</g>
</g>
</svg>
