<?xml version="1.0" encoding="utf-8"?>
<!-- Generator: Adobe Illustrator 16.2.1, SVG Export Plug-In . SVG Version: 6.00 Build 0)  -->
<!DOCTYPE svg PUBLIC "-//W3C//DTD SVG 1.1//EN" "http://www.w3.org/Graphics/SVG/1.1/DTD/svg11.dtd">
<svg version="1.1" id="Layer_1" xmlns="http://www.w3.org/2000/svg" xmlns:xlink="http://www.w3.org/1999/xlink" x="0px" y="0px"
	 width="90px" height="90px" viewBox="0 0 90 90" enable-background="new 0 0 90 90" xml:space="preserve">
<g>
	<path d="M68.72,20.673H21.28c-3.212,0-5.815,2.604-5.815,5.814v37.025c0,3.211,2.603,5.814,5.815,5.814h30.046
		c0.001-4.861,0.002-9.725,0.003-14.586c0-1.1,0.001-2.199,0-3.297c0-0.328-0.008-0.334-0.339-0.334
		c-1.478-0.002-2.956,0-4.435-0.002c-0.291,0-0.307-0.014-0.307-0.299c-0.001-2.094-0.001-4.189,0-6.283
		c0-0.293,0.016-0.307,0.323-0.309c1.434,0,2.867,0,4.301,0c0.456,0,0.456,0,0.456-0.445c0.002-1.953-0.02-3.908,0.01-5.861
		c0.056-3.885,2.41-6.945,6.144-8.033c1.382-0.402,2.799-0.541,4.23-0.49c1.356,0.047,2.712,0.145,4.067,0.225
		c0.264,0.016,0.299,0.062,0.293,0.334c-0.031,1.545-0.064,3.088-0.1,4.633c-0.01,0.416-0.036,0.83-0.035,1.246
		c0,0.207-0.08,0.27-0.277,0.266c-1.382-0.014-2.763-0.027-4.145-0.025c-0.332,0-0.668,0.029-0.996,0.082
		c-1.116,0.186-1.713,0.826-1.846,1.973c-0.033,0.287-0.051,0.576-0.051,0.865c-0.005,1.611-0.002,3.225-0.002,4.836
		c0,0.396,0,0.396,0.389,0.396c2.235,0,4.471,0,6.707,0c0.4,0,0.409,0.002,0.391,0.391c-0.064,1.385-0.136,2.771-0.204,4.158
		c-0.034,0.689-0.073,1.379-0.095,2.068c-0.006,0.215-0.085,0.277-0.293,0.277c-2.177-0.006-4.354-0.004-6.529-0.004
		c-0.365,0-0.365,0.002-0.365,0.371c0,3.074,0,6.148,0,9.225h0.002c0,2.875,0,5.75,0.004,8.623H68.72
		c3.211,0,5.814-2.604,5.814-5.814V26.487C74.535,23.276,71.931,20.673,68.72,20.673z"/>
</g>
</svg>
