<?xml version="1.0" encoding="utf-8"?>
<!-- Generator: Adobe Illustrator 16.2.1, SVG Export Plug-In . SVG Version: 6.00 Build 0)  -->
<!DOCTYPE svg PUBLIC "-//W3C//DTD SVG 1.1//EN" "http://www.w3.org/Graphics/SVG/1.1/DTD/svg11.dtd">
<svg version="1.1" id="Layer_1" xmlns="http://www.w3.org/2000/svg" xmlns:xlink="http://www.w3.org/1999/xlink" x="0px" y="0px"
	 width="90px" height="90px" viewBox="0 0 90 90" enable-background="new 0 0 90 90" xml:space="preserve">
<g>
	<g>
		<path d="M62.063,54l-30.999,0.25l8.75-9.25l-8.75-9.25L62.063,36L51.401,20.672h-40.65c-3.211,0-5.814,2.604-5.814,5.814v37.025
			c0,3.213,2.604,5.816,5.814,5.816h40.65L62.063,54z M13.314,54l8.875-9l-8.875-9h8.75l9,9l-9,9H13.314z"/>
	</g>
	<g>
		<g>
			<path d="M67.813,18.75L85.063,45l-17.25,26.25h-17.75l12-17.25l-30.999,0.25l8.75-9.25l-8.75-9.25L62.063,36l-12-17.25H67.813
				 M69.432,15.75h-1.618h-17.75h-5.741l3.278,4.713l8.688,12.49l-25.2-0.203l-7.046-0.057l4.842,5.118l6.8,7.188l-6.8,7.188
				l-4.842,5.118l7.046-0.057l25.2-0.203l-8.688,12.49l-3.278,4.713h5.741h17.75h1.618l0.889-1.353l17.25-26.25L88.653,45
				l-1.083-1.647l-17.25-26.25L69.432,15.75L69.432,15.75z"/>
		</g>
		<g>
			<path d="M22.064,36l9,9l-9,9h-8.75l8.875-9l-8.875-9H22.064 M23.307,33h-1.242h-8.75H6.143l5.036,5.106L17.977,45l-6.798,6.894
				L6.143,57h7.172h8.75h1.242l0.879-0.879l9-9L35.307,45l-2.121-2.121l-9-9L23.307,33L23.307,33z"/>
		</g>
	</g>
</g>
</svg>
