<?xml version="1.0" encoding="utf-8"?>
<!-- Generator: Adobe Illustrator 16.2.1, SVG Export Plug-In . SVG Version: 6.00 Build 0)  -->
<!DOCTYPE svg PUBLIC "-//W3C//DTD SVG 1.1//EN" "http://www.w3.org/Graphics/SVG/1.1/DTD/svg11.dtd">
<svg version="1.1" id="Layer_1" xmlns="http://www.w3.org/2000/svg" xmlns:xlink="http://www.w3.org/1999/xlink" x="0px" y="0px"
	 width="317.667px" height="326px" viewBox="0 0 317.667 326" enable-background="new 0 0 317.667 326" xml:space="preserve">
<g>
	<path fill="#231F20" d="M258.153,107.339h-47.44c-3.212,0-5.815,2.604-5.815,5.815v37.026c0,3.211,2.603,5.814,5.815,5.814h47.44
		c3.211,0,5.815-2.604,5.815-5.814v-37.026C263.968,109.942,261.364,107.339,258.153,107.339z M252.793,136.083h-36.167v-8.833
		h36.167V136.083z"/>
</g>
<g>
	<path fill="#231F20" d="M258.153,27.649h-47.44c-3.212,0-5.815,2.604-5.815,5.815v37.026c0,3.211,2.603,5.814,5.815,5.814h47.44
		c3.211,0,5.815-2.604,5.815-5.814V33.465C263.968,30.253,261.364,27.649,258.153,27.649z M252.793,56.394h-12.978v13.667h-8.833
		V56.394h-14.356v-8.833h14.356V33.894h8.833v13.667h12.978V56.394z"/>
</g>
<g>
	<g>
		
			<rect x="91.324" y="90.606" transform="matrix(-0.7071 -0.7071 0.7071 -0.7071 104.0751 233.155)" fill="#231F20" width="18" height="8.834"/>
		<polygon fill="#231F20" points="100.736,107.339 88.009,107.339 88.009,94.61 48.568,134.016 48.568,146.743 61.178,146.861 		"/>
	</g>
	<g>
		<path fill="#231F20" d="M82.194,110.339c1.552,0,2.815,1.263,2.815,2.815v37.026c0,1.552-1.263,2.814-2.815,2.814h-47.44
			c-1.552,0-2.815-1.263-2.815-2.814v-37.026c0-1.553,1.263-2.815,2.815-2.815H82.194 M82.194,107.339h-47.44
			c-3.212,0-5.815,2.604-5.815,5.815v37.026c0,3.211,2.603,5.814,5.815,5.814h47.44c3.211,0,5.815-2.604,5.815-5.814v-37.026
			C88.009,109.942,85.405,107.339,82.194,107.339L82.194,107.339z"/>
	</g>
</g>
<g>
	<path fill="#231F20" d="M167.81,107.339h-47.44c-3.212,0-5.815,2.604-5.815,5.815v37.026c0,3.211,2.603,5.814,5.815,5.814h47.44
		c3.211,0,5.815-2.604,5.815-5.814v-37.026C173.625,109.942,171.021,107.339,167.81,107.339z M157.085,150.003l-12.75-6.703
		l-12.75,6.703l2.435-14.198l-10.315-10.055l14.256-2.072l6.375-12.917l6.375,12.917l14.256,2.072l-10.315,10.055L157.085,150.003z"
		/>
</g>
<g id="HGrWGM_2_">
	<g>
		<g>
			<path display="none" fill-rule="evenodd" clip-rule="evenodd" d="M534.935,344.244c-0.182-0.403-0.363-0.809-0.547-1.214
				c-0.486-1.076-0.943-2.164-1.222-3.317c-0.354-1.467-0.392-2.929,0.084-4.381c0.34-1.036,0.889-1.954,1.6-2.773
				c0.336-0.387,0.688-0.766,1.071-1.103c0.793-0.695,1.396-1.527,1.865-2.461c0.879-1.75,1.332-3.605,1.326-5.566
				c-0.003-0.873-0.148-1.734-0.307-2.591c-0.285-1.541-0.586-3.078-0.864-4.62c-0.205-1.135-0.346-2.278-0.352-3.433
				c-0.003-0.62,0.053-1.233,0.188-1.844c0.287-1.302,1.723-2.337,2.757-2.509c0.741-0.123,1.445-0.007,2.13,0.271
				c0.847,0.343,1.583,0.86,2.236,1.487c2.264,2.172,3.809,4.785,4.55,7.825c0.845,3.466,0.2,6.701-1.787,9.665
				c-0.221,0.329-0.469,0.64-0.704,0.959c-0.051,0.068-0.103,0.136-0.192,0.255c0.27-0.029,0.483-0.05,0.696-0.076
				c1.62-0.196,3.242-0.216,4.868-0.061c2.192,0.209,4.309,0.719,6.344,1.562c1.719,0.712,3.324,1.616,4.722,2.858
				c1.039,0.924,1.897,1.987,2.426,3.289c0.375,0.925,0.523,1.879,0.326,2.871c-0.095,0.474-0.31,0.894-0.573,1.292
				c-0.344,0.52-0.764,0.974-1.213,1.402c-0.716,0.684-1.5,1.283-2.309,1.853c-0.085,0.061-0.169,0.122-0.233,0.169
				c0.175,0.188,0.337,0.367,0.504,0.542c0.768,0.805,1.29,1.736,1.445,2.851c0.179,1.279-0.072,2.466-0.801,3.539
				c-0.533,0.786-1.216,1.431-1.983,1.98c-0.463,0.332-0.956,0.624-1.436,0.933c-0.079,0.052-0.162,0.099-0.241,0.146
				c0.11,0.368,0.237,0.713,0.316,1.069c0.515,2.313-0.256,4.173-2.062,5.628c-0.964,0.777-2.106,1.217-3.29,1.541
				c-1.916,0.525-3.864,0.657-5.841,0.483c-3.435-0.303-6.194-1.876-8.424-4.448c-0.187-0.215-0.372-0.353-0.653-0.423
				c-1.621-0.408-2.912-1.328-3.914-2.648c-1.206-1.588-1.847-3.384-1.897-5.384c-0.027-1.076,0.014-2.147,0.273-3.2
				c0.203-0.827,0.529-1.596,1.034-2.286C534.879,344.338,534.902,344.295,534.935,344.244z M547.728,338.067
				c0.044-0.025,0.077-0.042,0.107-0.064c0.8-0.59,1.679-1.036,2.592-1.417c1.39-0.579,2.828-0.991,4.313-1.237
				c0.292-0.048,0.295-0.045,0.426,0.212c-0.193,0.032-0.385,0.056-0.572,0.096c-1.19,0.256-2.309,0.711-3.403,1.232
				c-0.893,0.425-1.757,0.902-2.534,1.52c-0.512,0.405-0.995,0.838-1.172,1.532c-0.331-0.022-0.654-0.045-0.99-0.068
				c0.033-0.496,0.304-0.84,0.566-1.188c-0.03-0.039-0.051-0.072-0.078-0.099c-0.992-0.958-2.098-1.742-3.4-2.227
				c-0.959-0.356-1.938-0.439-2.938-0.208c-1.348,0.312-2.148,1.192-2.343,2.555c-0.106,0.742-0.025,1.468,0.16,2.185
				c0.403,1.555,1.178,2.919,2.171,4.166c0.962,1.208,2.087,2.231,3.461,2.962c0.888,0.472,1.832,0.716,2.837,0.744
				c1.437,0.041,2.834-0.2,4.214-0.568c2.615-0.698,5.072-1.775,7.413-3.125c1.447-0.834,2.817-1.776,4.029-2.933
				c0.697-0.664,1.327-1.382,1.769-2.248c0.386-0.756,0.472-1.546,0.301-2.37c-0.199-0.96-0.658-1.792-1.246-2.562
				c-0.923-1.208-2.109-2.097-3.435-2.812c-2.801-1.511-5.816-2.24-8.974-2.44c-1.667-0.106-3.327-0.021-4.98,0.22
				c-0.176,0.025-0.298,0.103-0.425,0.216c-0.607,0.54-1.224,1.07-1.838,1.603c-0.056,0.048-0.124,0.081-0.159,0.104
				c-0.118-0.088-0.214-0.161-0.321-0.241c0.113-0.091,0.188-0.151,0.263-0.211c1.155-0.908,2.199-1.927,3.069-3.114
				c1.783-2.431,2.605-5.143,2.321-8.157c-0.216-2.286-1.026-4.357-2.377-6.214c-0.823-1.131-1.799-2.103-3.007-2.824
				c-0.484-0.289-0.993-0.522-1.548-0.645c-0.904-0.199-1.626,0.12-2.089,0.923c-0.215,0.373-0.347,0.776-0.438,1.194
				c-0.255,1.167-0.236,2.348-0.154,3.527c0.11,1.614,0.368,3.21,0.713,4.79c0.306,1.405,0.397,2.817,0.184,4.24
				c-0.395,2.634-1.541,4.885-3.448,6.752c-0.449,0.439-0.876,0.905-1.276,1.389c-0.642,0.774-1.132,1.639-1.424,2.607
				c-0.387,1.285-0.34,2.58-0.084,3.878c0.27,1.372,0.729,2.687,1.241,3.983c0.013,0.032,0.032,0.062,0.065,0.124
				c0.408-0.408,0.83-0.754,1.327-1.039c0.051,0.108,0.09,0.191,0.136,0.287c-0.741,0.42-1.194,1.058-1.519,1.802
				c-0.046,0.106-0.087,0.216-0.127,0.324c-0.268,0.722-0.406,1.473-0.484,2.234c-0.108,1.062-0.157,2.129-0.012,3.188
				c0.37,2.678,1.757,4.665,4.134,5.958c0.062,0.033,0.13,0.057,0.237,0.103c-0.052-0.153-0.089-0.261-0.124-0.369
				c-0.395-1.244-0.147-2.332,0.805-3.237c0.216-0.206,0.468-0.375,0.702-0.561c0.06-0.046,0.118-0.092,0.182-0.142
				c-0.049-0.092-0.089-0.169-0.13-0.245c-0.257-0.479-0.465-0.977-0.615-1.5c-0.276-0.962-0.372-1.937-0.215-2.929
				c0.101-0.633,0.338-1.208,0.74-1.701c-0.015-0.032-0.019-0.052-0.029-0.065c-0.049-0.061-0.101-0.119-0.15-0.178
				c-0.977-1.141-1.782-2.388-2.329-3.792c-0.407-1.047-0.663-2.122-0.563-3.259c0.139-1.589,0.958-2.669,2.448-3.216
				c1.337-0.49,2.69-0.496,4.041-0.032c1.446,0.496,2.671,1.346,3.771,2.39C547.584,337.934,547.654,337.999,547.728,338.067z
				 M560.642,344.836c-0.132,0.08-0.24,0.143-0.346,0.209c-2.631,1.669-5.43,2.966-8.437,3.797c-1.337,0.37-2.695,0.612-4.086,0.673
				c-1.842,0.08-3.53-0.37-5.041-1.432c-0.49-0.344-0.947-0.735-1.417-1.107c-0.081-0.064-0.155-0.138-0.266-0.236
				c-0.111,0.243-0.223,0.446-0.3,0.662c-0.32,0.901-0.324,1.824-0.144,2.749c0.233,1.197,0.848,2.194,1.675,3.066
				c1.214,1.279,2.715,2.065,4.407,2.505c1.207,0.313,2.437,0.31,3.665,0.215c1.86-0.144,3.673-0.533,5.438-1.142
				c1.442-0.498,2.819-1.129,4.059-2.032c0.638-0.464,1.215-0.992,1.676-1.638c0.604-0.845,0.941-1.779,0.874-2.826
				C562.311,346.911,561.62,345.815,560.642,344.836z M541.011,353.1c-0.557,0.441-0.987,0.958-1.19,1.643
				c-0.229,0.768-0.075,1.494,0.254,2.196c0.273,0.584,0.654,1.097,1.099,1.561c1.249,1.306,2.744,2.23,4.452,2.802
				c2.344,0.783,4.745,0.985,7.189,0.628c0.933-0.137,1.836-0.386,2.688-0.8c1.026-0.5,1.831-1.225,2.289-2.289
				c0.565-1.313,0.512-2.637,0.031-3.96c-0.012-0.032-0.045-0.058-0.068-0.085c-0.065,0.024-0.12,0.044-0.173,0.066
				c-2.715,1.122-5.53,1.805-8.47,1.938c-0.941,0.043-1.877-0.011-2.791-0.266c-2.069-0.575-3.844-1.614-5.198-3.312
				C541.093,353.186,541.059,353.152,541.011,353.1z"/>
			<path display="none" fill-rule="evenodd" clip-rule="evenodd" fill="none" d="M547.728,338.067
				c-0.073-0.068-0.144-0.133-0.213-0.198c-1.101-1.044-2.325-1.894-3.771-2.39c-1.351-0.464-2.704-0.458-4.041,0.032
				c-1.49,0.547-2.31,1.627-2.448,3.216c-0.1,1.137,0.156,2.212,0.563,3.259c0.547,1.404,1.353,2.651,2.329,3.792
				c0.05,0.059,0.102,0.117,0.15,0.178c0.011,0.014,0.015,0.033,0.029,0.065c-0.402,0.493-0.64,1.068-0.74,1.701
				c-0.157,0.992-0.062,1.967,0.215,2.929c0.15,0.523,0.358,1.021,0.615,1.5c0.041,0.076,0.081,0.153,0.13,0.245
				c-0.063,0.05-0.122,0.096-0.182,0.142c-0.234,0.186-0.486,0.354-0.702,0.561c-0.952,0.905-1.199,1.993-0.805,3.237
				c0.035,0.108,0.072,0.216,0.124,0.369c-0.107-0.046-0.175-0.069-0.237-0.103c-2.377-1.293-3.764-3.28-4.134-5.958
				c-0.146-1.06-0.097-2.126,0.012-3.188c0.078-0.762,0.217-1.513,0.484-2.234c0.04-0.108,0.081-0.218,0.127-0.324
				c0.324-0.744,0.777-1.382,1.519-1.802c-0.046-0.096-0.085-0.179-0.136-0.287c-0.497,0.285-0.919,0.631-1.327,1.039
				c-0.033-0.062-0.053-0.092-0.065-0.124c-0.512-1.297-0.972-2.611-1.241-3.983c-0.256-1.298-0.303-2.593,0.084-3.878
				c0.292-0.969,0.782-1.833,1.424-2.607c0.4-0.483,0.827-0.949,1.276-1.389c1.907-1.867,3.054-4.118,3.448-6.752
				c0.214-1.423,0.122-2.835-0.184-4.24c-0.345-1.58-0.603-3.176-0.713-4.79c-0.082-1.18-0.101-2.36,0.154-3.527
				c0.091-0.418,0.223-0.821,0.438-1.194c0.463-0.803,1.185-1.122,2.089-0.923c0.555,0.122,1.063,0.355,1.548,0.645
				c1.208,0.722,2.184,1.693,3.007,2.824c1.351,1.856,2.161,3.928,2.377,6.214c0.284,3.015-0.538,5.727-2.321,8.157
				c-0.87,1.188-1.914,2.206-3.069,3.114c-0.075,0.06-0.149,0.12-0.263,0.211c0.107,0.08,0.203,0.153,0.321,0.241
				c0.035-0.022,0.104-0.056,0.159-0.104c0.614-0.532,1.23-1.062,1.838-1.603c0.127-0.113,0.249-0.19,0.425-0.216
				c1.653-0.241,3.313-0.326,4.98-0.22c3.157,0.2,6.173,0.93,8.974,2.44c1.325,0.715,2.512,1.604,3.435,2.812
				c0.588,0.771,1.047,1.603,1.246,2.562c0.171,0.824,0.085,1.614-0.301,2.37c-0.441,0.866-1.071,1.584-1.769,2.248
				c-1.212,1.156-2.582,2.099-4.029,2.933c-2.341,1.35-4.798,2.427-7.413,3.125c-1.38,0.368-2.777,0.609-4.214,0.568
				c-1.005-0.028-1.949-0.272-2.837-0.744c-1.374-0.73-2.499-1.754-3.461-2.962c-0.993-1.247-1.768-2.611-2.171-4.166
				c-0.186-0.717-0.267-1.442-0.16-2.185c0.194-1.362,0.995-2.242,2.343-2.555c1.001-0.231,1.979-0.148,2.938,0.208
				c1.303,0.484,2.408,1.269,3.4,2.227c0.027,0.026,0.048,0.06,0.078,0.099c-0.263,0.348-0.533,0.691-0.566,1.188
				c0.336,0.023,0.659,0.046,0.99,0.068c0.177-0.694,0.66-1.127,1.172-1.532c0.777-0.617,1.642-1.095,2.534-1.52
				c1.095-0.521,2.213-0.977,3.403-1.232c0.188-0.04,0.379-0.063,0.572-0.096c-0.131-0.257-0.134-0.26-0.426-0.212
				c-1.485,0.246-2.924,0.658-4.313,1.237c-0.913,0.381-1.792,0.827-2.592,1.417C547.805,338.025,547.771,338.042,547.728,338.067z"
				/>
			<path display="none" fill-rule="evenodd" clip-rule="evenodd" fill="none" d="M560.642,344.836
				c0.979,0.979,1.669,2.074,1.758,3.463c0.067,1.047-0.271,1.981-0.874,2.826c-0.461,0.646-1.038,1.174-1.676,1.638
				c-1.239,0.903-2.616,1.534-4.059,2.032c-1.765,0.608-3.577,0.998-5.438,1.142c-1.229,0.095-2.458,0.099-3.665-0.215
				c-1.692-0.439-3.193-1.226-4.407-2.505c-0.827-0.872-1.441-1.869-1.675-3.066c-0.181-0.925-0.177-1.848,0.144-2.749
				c0.077-0.216,0.188-0.419,0.3-0.662c0.11,0.099,0.185,0.172,0.266,0.236c0.47,0.372,0.927,0.764,1.417,1.107
				c1.511,1.062,3.199,1.512,5.041,1.432c1.391-0.061,2.749-0.303,4.086-0.673c3.007-0.831,5.806-2.128,8.437-3.797
				C560.401,344.979,560.51,344.917,560.642,344.836z"/>
			<path display="none" fill-rule="evenodd" clip-rule="evenodd" fill="none" d="M541.011,353.1
				c0.048,0.052,0.082,0.086,0.111,0.123c1.354,1.697,3.129,2.736,5.198,3.312c0.914,0.255,1.85,0.309,2.791,0.266
				c2.939-0.134,5.755-0.816,8.47-1.938c0.053-0.022,0.107-0.042,0.173-0.066c0.023,0.027,0.057,0.053,0.068,0.085
				c0.48,1.323,0.534,2.646-0.031,3.96c-0.458,1.064-1.263,1.789-2.289,2.289c-0.852,0.414-1.755,0.663-2.688,0.8
				c-2.444,0.357-4.846,0.155-7.189-0.628c-1.708-0.571-3.203-1.496-4.452-2.802c-0.444-0.464-0.825-0.977-1.099-1.561
				c-0.329-0.702-0.482-1.429-0.254-2.196C540.023,354.058,540.454,353.542,541.011,353.1z"/>
		</g>
	</g>
</g>
<g>
	<g>
		<path fill="#231F20" d="M82.32,28.718H58.657c-0.301,1.624-0.959,3.184-1.959,4.675c-0.221,0.329-0.469,0.64-0.704,0.959
			c-0.051,0.068-0.103,0.136-0.192,0.255c0.27-0.029,0.483-0.05,0.696-0.076c1.62-0.196,3.242-0.216,4.868-0.061
			c2.192,0.209,4.309,0.719,6.344,1.562c1.719,0.712,3.324,1.616,4.722,2.858c1.039,0.924,1.897,1.987,2.426,3.289
			c0.375,0.925,0.523,1.879,0.326,2.871c-0.095,0.474-0.31,0.894-0.573,1.292c-0.344,0.52-0.764,0.974-1.213,1.402
			c-0.716,0.684-1.5,1.283-2.309,1.853c-0.085,0.061-0.169,0.122-0.233,0.169c0.175,0.188,0.337,0.367,0.504,0.542
			c0.768,0.805,1.29,1.736,1.445,2.851c0.179,1.279-0.072,2.466-0.801,3.539c-0.533,0.786-1.216,1.431-1.983,1.98
			c-0.463,0.332-0.956,0.624-1.436,0.933c-0.079,0.052-0.162,0.099-0.241,0.146c0.11,0.368,0.237,0.713,0.316,1.069
			c0.515,2.313-0.256,4.173-2.062,5.628c-0.964,0.777-2.106,1.217-3.29,1.541c-1.916,0.525-3.864,0.657-5.841,0.483
			c-3.435-0.303-6.194-1.876-8.424-4.448c-0.187-0.215-0.372-0.353-0.653-0.423c-1.621-0.408-2.912-1.328-3.914-2.648
			c-1.206-1.588-1.847-3.384-1.897-5.384c-0.027-1.076,0.014-2.147,0.273-3.2c0.203-0.827,0.529-1.596,1.034-2.286
			c0.028-0.038,0.052-0.081,0.084-0.133c-0.182-0.403-0.363-0.809-0.547-1.214c-0.486-1.076-0.943-2.164-1.222-3.317
			c-0.354-1.467-0.392-2.929,0.084-4.381c0.34-1.036,0.889-1.954,1.6-2.773c0.336-0.387,0.688-0.766,1.071-1.103
			c0.793-0.695,1.396-1.527,1.865-2.461c0.879-1.75,1.332-3.605,1.326-5.566c0-0.142-0.023-0.282-0.031-0.423H34.88
			c-3.211,0-5.814,2.604-5.814,5.815V71.56c0,3.211,2.604,5.814,5.814,5.814h47.44c3.212,0,5.815-2.604,5.815-5.814V34.533
			C88.136,31.321,85.532,28.718,82.32,28.718z"/>
	</g>
	<g id="HGrWGM_1_">
		<g>
			<path fill="none" d="M22.287,76.685c0-22.87,0-45.739,0-68.608c22.87,0,45.739,0,68.608,0c0,22.87,0,45.739,0,68.608
				C68.025,76.685,45.156,76.685,22.287,76.685z M42.729,49.984c-0.032,0.052-0.056,0.094-0.084,0.133
				c-0.504,0.689-0.831,1.458-1.034,2.285c-0.26,1.053-0.301,2.124-0.274,3.201c0.051,1.999,0.691,3.795,1.897,5.383
				c1.003,1.32,2.293,2.24,3.915,2.648c0.281,0.071,0.467,0.208,0.653,0.422c2.23,2.573,4.99,4.146,8.424,4.449
				c1.977,0.174,3.925,0.042,5.841-0.483c1.184-0.324,2.326-0.764,3.291-1.541c1.806-1.456,2.577-3.314,2.062-5.628
				c-0.08-0.356-0.206-0.702-0.316-1.07c0.079-0.047,0.162-0.094,0.241-0.146c0.48-0.309,0.972-0.601,1.436-0.933
				c0.768-0.55,1.45-1.194,1.984-1.981c0.728-1.073,0.979-2.26,0.801-3.539c-0.155-1.114-0.678-2.045-1.446-2.851
				c-0.167-0.174-0.329-0.353-0.503-0.542c0.065-0.047,0.148-0.109,0.234-0.169c0.808-0.569,1.592-1.168,2.308-1.852
				c0.449-0.429,0.869-0.883,1.213-1.403c0.263-0.398,0.478-0.818,0.573-1.292c0.198-0.992,0.049-1.946-0.326-2.871
				c-0.528-1.302-1.387-2.366-2.426-3.29c-1.397-1.243-3.003-2.147-4.722-2.858c-2.035-0.842-4.151-1.353-6.344-1.562
				c-1.625-0.155-3.248-0.136-4.868,0.061c-0.213,0.026-0.427,0.047-0.696,0.076c0.09-0.12,0.142-0.188,0.192-0.255
				c0.236-0.319,0.484-0.63,0.705-0.959c1.987-2.963,2.631-6.198,1.786-9.665c-0.741-3.04-2.286-5.653-4.549-7.825
				c-0.653-0.627-1.39-1.145-2.236-1.487c-0.686-0.277-1.389-0.394-2.13-0.271c-1.035,0.172-2.47,1.207-2.757,2.509
				c-0.134,0.61-0.189,1.224-0.187,1.843c0.006,1.155,0.146,2.298,0.351,3.433c0.278,1.542,0.579,3.08,0.864,4.621
				c0.159,0.856,0.303,1.717,0.306,2.591c0.006,1.96-0.447,3.816-1.326,5.566c-0.469,0.934-1.072,1.765-1.865,2.46
				c-0.384,0.337-0.735,0.716-1.071,1.103c-0.711,0.819-1.26,1.737-1.6,2.773c-0.477,1.453-0.439,2.915-0.084,4.382
				c0.278,1.153,0.735,2.241,1.222,3.317C42.365,49.174,42.547,49.58,42.729,49.984z"/>
			<path fill-rule="evenodd" clip-rule="evenodd" d="M42.729,49.984c-0.182-0.404-0.364-0.81-0.547-1.214
				c-0.487-1.076-0.943-2.164-1.222-3.317c-0.354-1.467-0.392-2.929,0.084-4.382c0.34-1.036,0.889-1.954,1.6-2.773
				c0.335-0.387,0.687-0.766,1.071-1.103c0.793-0.695,1.396-1.526,1.865-2.46c0.879-1.75,1.333-3.606,1.326-5.566
				c-0.003-0.874-0.147-1.735-0.306-2.591c-0.285-1.541-0.586-3.079-0.864-4.621c-0.205-1.134-0.345-2.277-0.351-3.433
				c-0.003-0.62,0.052-1.233,0.187-1.843c0.287-1.302,1.723-2.337,2.757-2.509c0.742-0.124,1.445-0.007,2.13,0.271
				c0.846,0.343,1.583,0.86,2.236,1.487c2.263,2.172,3.809,4.786,4.549,7.825c0.845,3.466,0.201,6.701-1.786,9.665
				c-0.221,0.329-0.469,0.64-0.705,0.959c-0.05,0.068-0.102,0.135-0.192,0.255c0.27-0.029,0.483-0.05,0.696-0.076
				c1.62-0.197,3.242-0.216,4.868-0.061c2.192,0.208,4.309,0.719,6.344,1.562c1.719,0.711,3.325,1.616,4.722,2.858
				c1.039,0.924,1.898,1.988,2.426,3.29c0.375,0.924,0.524,1.879,0.326,2.871c-0.095,0.474-0.31,0.894-0.573,1.292
				c-0.344,0.52-0.764,0.974-1.213,1.403c-0.716,0.684-1.5,1.283-2.308,1.852c-0.085,0.06-0.169,0.122-0.234,0.169
				c0.175,0.188,0.337,0.367,0.503,0.542c0.769,0.806,1.291,1.737,1.446,2.851c0.178,1.279-0.073,2.465-0.801,3.539
				c-0.534,0.787-1.216,1.431-1.984,1.981c-0.463,0.332-0.956,0.624-1.436,0.933c-0.08,0.051-0.162,0.098-0.241,0.146
				c0.11,0.368,0.237,0.714,0.316,1.07c0.515,2.314-0.256,4.172-2.062,5.628c-0.964,0.777-2.107,1.217-3.291,1.541
				c-1.916,0.525-3.864,0.657-5.841,0.483c-3.435-0.302-6.194-1.876-8.424-4.449c-0.186-0.214-0.372-0.352-0.653-0.422
				c-1.621-0.409-2.912-1.328-3.915-2.648c-1.206-1.588-1.847-3.384-1.897-5.383c-0.027-1.077,0.014-2.148,0.274-3.201
				c0.204-0.827,0.53-1.596,1.034-2.285C42.673,50.078,42.696,50.036,42.729,49.984z M55.522,43.807
				c0.043-0.026,0.077-0.042,0.107-0.064c0.799-0.59,1.678-1.036,2.592-1.417c1.39-0.579,2.828-0.992,4.313-1.237
				c0.292-0.048,0.294-0.045,0.426,0.212c-0.193,0.032-0.385,0.055-0.573,0.095c-1.19,0.256-2.309,0.711-3.403,1.232
				c-0.893,0.426-1.757,0.903-2.535,1.52c-0.511,0.405-0.995,0.838-1.172,1.533c-0.331-0.023-0.654-0.045-0.99-0.069
				c0.032-0.496,0.303-0.839,0.566-1.187c-0.031-0.039-0.052-0.072-0.079-0.099c-0.992-0.958-2.098-1.743-3.4-2.226
				c-0.959-0.356-1.938-0.44-2.939-0.208c-1.348,0.312-2.148,1.192-2.343,2.554c-0.106,0.743-0.025,1.468,0.161,2.185
				c0.403,1.555,1.177,2.919,2.17,4.166c0.963,1.209,2.087,2.232,3.462,2.962c0.887,0.472,1.832,0.716,2.837,0.744
				c1.437,0.041,2.833-0.2,4.213-0.568c2.615-0.698,5.073-1.776,7.413-3.125c1.447-0.833,2.817-1.776,4.029-2.932
				c0.697-0.665,1.327-1.382,1.769-2.249c0.385-0.755,0.471-1.545,0.3-2.37c-0.199-0.959-0.658-1.792-1.246-2.562
				c-0.923-1.209-2.11-2.098-3.435-2.812c-2.8-1.511-5.817-2.24-8.974-2.441c-1.667-0.105-3.328-0.021-4.98,0.22
				c-0.176,0.025-0.297,0.102-0.425,0.216c-0.607,0.54-1.223,1.07-1.838,1.602c-0.056,0.048-0.125,0.082-0.16,0.104
				c-0.117-0.089-0.213-0.161-0.32-0.242c0.112-0.09,0.187-0.151,0.263-0.211c1.154-0.908,2.198-1.926,3.069-3.114
				c1.783-2.431,2.606-5.143,2.321-8.157c-0.216-2.286-1.026-4.358-2.377-6.214c-0.823-1.13-1.799-2.102-3.007-2.824
				c-0.484-0.289-0.993-0.522-1.547-0.645c-0.904-0.199-1.626,0.12-2.089,0.923c-0.215,0.373-0.347,0.776-0.438,1.194
				c-0.254,1.167-0.235,2.348-0.154,3.527c0.111,1.614,0.368,3.21,0.713,4.79c0.306,1.405,0.398,2.817,0.184,4.24
				c-0.395,2.634-1.541,4.886-3.449,6.752c-0.449,0.439-0.875,0.905-1.276,1.389c-0.641,0.774-1.131,1.638-1.423,2.607
				c-0.387,1.286-0.34,2.58-0.085,3.878c0.27,1.373,0.73,2.686,1.242,3.983c0.013,0.032,0.032,0.062,0.065,0.124
				c0.409-0.409,0.831-0.753,1.328-1.039c0.051,0.108,0.09,0.191,0.135,0.287c-0.741,0.42-1.194,1.058-1.518,1.802
				c-0.046,0.106-0.087,0.215-0.127,0.324c-0.268,0.722-0.406,1.472-0.484,2.235c-0.109,1.062-0.158,2.129-0.011,3.188
				c0.37,2.678,1.756,4.666,4.133,5.958c0.062,0.034,0.13,0.057,0.237,0.104c-0.051-0.154-0.089-0.261-0.124-0.37
				c-0.395-1.244-0.147-2.332,0.804-3.237c0.216-0.206,0.467-0.375,0.703-0.561c0.059-0.046,0.118-0.092,0.182-0.142
				c-0.049-0.092-0.089-0.168-0.13-0.244c-0.257-0.479-0.465-0.978-0.616-1.5c-0.276-0.961-0.372-1.936-0.214-2.929
				c0.101-0.633,0.338-1.208,0.739-1.701c-0.014-0.032-0.018-0.052-0.029-0.066c-0.049-0.06-0.1-0.118-0.15-0.177
				c-0.977-1.141-1.783-2.388-2.329-3.792c-0.407-1.047-0.664-2.123-0.564-3.259c0.139-1.588,0.958-2.669,2.449-3.216
				c1.336-0.49,2.69-0.496,4.04-0.032c1.447,0.497,2.671,1.347,3.772,2.39C55.377,43.674,55.448,43.738,55.522,43.807z
				 M68.436,50.576c-0.132,0.08-0.24,0.143-0.345,0.209c-2.631,1.669-5.43,2.966-8.438,3.797c-1.337,0.369-2.695,0.612-4.085,0.672
				c-1.842,0.081-3.53-0.369-5.042-1.431c-0.49-0.344-0.946-0.736-1.417-1.107c-0.082-0.064-0.155-0.138-0.265-0.237
				c-0.111,0.244-0.223,0.447-0.3,0.663c-0.321,0.9-0.325,1.823-0.145,2.749c0.233,1.196,0.849,2.194,1.675,3.066
				c1.213,1.28,2.714,2.065,4.408,2.505c1.207,0.313,2.436,0.31,3.664,0.215c1.86-0.143,3.673-0.533,5.438-1.142
				c1.442-0.498,2.82-1.129,4.06-2.032c0.638-0.464,1.214-0.993,1.675-1.637c0.604-0.845,0.942-1.78,0.875-2.827
				C70.104,52.65,69.415,51.554,68.436,50.576z M48.805,58.84c-0.558,0.441-0.988,0.958-1.191,1.643
				c-0.229,0.768-0.074,1.494,0.254,2.197c0.273,0.584,0.654,1.097,1.098,1.561c1.25,1.305,2.744,2.23,4.452,2.801
				c2.344,0.784,4.746,0.985,7.19,0.628c0.932-0.136,1.835-0.385,2.687-0.8c1.027-0.5,1.831-1.224,2.289-2.289
				c0.565-1.313,0.511-2.636,0.031-3.96c-0.012-0.033-0.044-0.057-0.068-0.085c-0.065,0.025-0.12,0.044-0.173,0.066
				c-2.714,1.122-5.53,1.805-8.469,1.939c-0.942,0.043-1.876-0.012-2.792-0.266c-2.069-0.576-3.843-1.614-5.197-3.312
				C48.887,58.925,48.853,58.892,48.805,58.84z"/>
			<path fill-rule="evenodd" clip-rule="evenodd" fill="none" d="M55.522,43.807c-0.074-0.068-0.145-0.133-0.213-0.198
				c-1.101-1.043-2.325-1.893-3.772-2.39c-1.35-0.464-2.704-0.458-4.04,0.032c-1.491,0.547-2.31,1.627-2.449,3.216
				c-0.1,1.137,0.157,2.212,0.564,3.259c0.546,1.404,1.352,2.651,2.329,3.792c0.05,0.059,0.101,0.117,0.15,0.177
				c0.012,0.014,0.016,0.034,0.029,0.066c-0.401,0.493-0.639,1.068-0.739,1.701c-0.158,0.993-0.062,1.967,0.214,2.929
				c0.15,0.523,0.358,1.021,0.616,1.5c0.041,0.076,0.082,0.152,0.13,0.244c-0.064,0.05-0.123,0.096-0.182,0.142
				c-0.235,0.186-0.487,0.354-0.703,0.561c-0.952,0.906-1.199,1.994-0.804,3.237c0.034,0.108,0.072,0.216,0.124,0.37
				c-0.107-0.046-0.175-0.069-0.237-0.104c-2.377-1.292-3.764-3.28-4.133-5.958c-0.146-1.059-0.098-2.126,0.011-3.188
				c0.078-0.763,0.217-1.513,0.484-2.235c0.04-0.109,0.081-0.218,0.127-0.324c0.324-0.744,0.776-1.382,1.518-1.802
				c-0.045-0.096-0.084-0.178-0.135-0.287c-0.497,0.285-0.918,0.63-1.328,1.039c-0.033-0.062-0.052-0.092-0.065-0.124
				c-0.512-1.297-0.972-2.611-1.242-3.983c-0.255-1.298-0.302-2.592,0.085-3.878c0.292-0.969,0.782-1.833,1.423-2.607
				c0.401-0.484,0.827-0.95,1.276-1.389c1.908-1.867,3.054-4.119,3.449-6.752c0.214-1.423,0.122-2.834-0.184-4.24
				c-0.345-1.58-0.602-3.176-0.713-4.79c-0.081-1.18-0.1-2.361,0.154-3.527c0.091-0.418,0.223-0.822,0.438-1.194
				c0.463-0.803,1.185-1.122,2.089-0.923c0.554,0.122,1.063,0.355,1.547,0.645c1.208,0.722,2.185,1.693,3.007,2.824
				c1.351,1.856,2.161,3.928,2.377,6.214c0.285,3.015-0.539,5.726-2.321,8.157c-0.871,1.188-1.915,2.206-3.069,3.114
				c-0.076,0.06-0.15,0.121-0.263,0.211c0.107,0.081,0.203,0.153,0.32,0.242c0.035-0.023,0.104-0.056,0.16-0.104
				c0.615-0.532,1.23-1.062,1.838-1.602c0.127-0.114,0.249-0.19,0.425-0.216c1.653-0.241,3.313-0.326,4.98-0.22
				c3.157,0.201,6.173,0.93,8.974,2.441c1.325,0.714,2.512,1.603,3.435,2.812c0.588,0.77,1.047,1.602,1.246,2.562
				c0.171,0.825,0.085,1.615-0.3,2.37c-0.442,0.867-1.072,1.584-1.769,2.249c-1.212,1.156-2.583,2.099-4.029,2.932
				c-2.34,1.349-4.798,2.427-7.413,3.125c-1.38,0.369-2.777,0.609-4.213,0.568c-1.005-0.028-1.95-0.272-2.837-0.744
				c-1.375-0.73-2.499-1.753-3.462-2.962c-0.993-1.247-1.767-2.611-2.17-4.166c-0.186-0.717-0.267-1.442-0.161-2.185
				c0.195-1.361,0.996-2.242,2.343-2.554c1.001-0.232,1.979-0.148,2.939,0.208c1.302,0.483,2.408,1.268,3.4,2.226
				c0.027,0.026,0.047,0.06,0.079,0.099c-0.263,0.348-0.534,0.691-0.566,1.187c0.335,0.023,0.659,0.046,0.99,0.069
				c0.177-0.694,0.661-1.127,1.172-1.533c0.777-0.617,1.642-1.094,2.535-1.52c1.094-0.521,2.212-0.976,3.403-1.232
				c0.188-0.041,0.379-0.063,0.573-0.095c-0.132-0.257-0.134-0.261-0.426-0.212c-1.485,0.246-2.924,0.658-4.313,1.237
				c-0.914,0.381-1.792,0.827-2.592,1.417C55.599,43.764,55.565,43.781,55.522,43.807z"/>
			<path fill-rule="evenodd" clip-rule="evenodd" fill="none" d="M68.436,50.576c0.979,0.979,1.668,2.074,1.758,3.463
				c0.067,1.046-0.271,1.982-0.875,2.827c-0.461,0.645-1.037,1.173-1.675,1.637c-1.24,0.903-2.617,1.534-4.06,2.032
				c-1.764,0.608-3.577,0.999-5.438,1.142c-1.229,0.095-2.458,0.099-3.664-0.215c-1.693-0.44-3.194-1.225-4.408-2.505
				c-0.827-0.872-1.442-1.87-1.675-3.066c-0.18-0.926-0.177-1.849,0.145-2.749c0.077-0.216,0.188-0.419,0.3-0.663
				c0.11,0.099,0.184,0.172,0.265,0.237c0.47,0.372,0.927,0.763,1.417,1.107c1.511,1.062,3.199,1.512,5.042,1.431
				c1.391-0.06,2.749-0.303,4.085-0.672c3.007-0.831,5.806-2.128,8.438-3.797C68.195,50.718,68.303,50.656,68.436,50.576z"/>
			<path fill-rule="evenodd" clip-rule="evenodd" fill="none" d="M48.805,58.84c0.047,0.052,0.082,0.085,0.111,0.123
				c1.354,1.698,3.128,2.736,5.197,3.312c0.915,0.254,1.85,0.309,2.792,0.266c2.939-0.135,5.755-0.817,8.469-1.939
				c0.054-0.022,0.108-0.042,0.173-0.066c0.023,0.028,0.056,0.053,0.068,0.085c0.48,1.324,0.535,2.646-0.031,3.96
				c-0.458,1.065-1.262,1.79-2.289,2.289c-0.852,0.415-1.755,0.664-2.687,0.8c-2.445,0.357-4.847,0.156-7.19-0.628
				c-1.708-0.571-3.203-1.496-4.452-2.801c-0.444-0.464-0.825-0.977-1.098-1.561c-0.329-0.703-0.483-1.429-0.254-2.197
				C47.817,59.798,48.248,59.281,48.805,58.84z"/>
		</g>
	</g>
</g>
<g>
	<g>
		<path fill="#231F20" d="M165.743,28.718h-47.44c-3.212,0-5.815,2.604-5.815,5.814v37.026c0,3.212,2.604,5.815,5.815,5.815h23.664
			c0.301-1.624,0.959-3.184,1.959-4.675c0.221-0.329,0.469-0.64,0.704-0.959c0.051-0.068,0.103-0.136,0.192-0.255
			c-0.27,0.029-0.483,0.05-0.696,0.076c-1.62,0.196-3.242,0.216-4.868,0.061c-2.192-0.209-4.309-0.719-6.344-1.562
			c-1.719-0.712-3.324-1.616-4.722-2.858c-1.039-0.924-1.897-1.987-2.426-3.289c-0.375-0.925-0.523-1.879-0.326-2.871
			c0.095-0.474,0.31-0.894,0.573-1.292c0.344-0.52,0.764-0.974,1.213-1.402c0.716-0.684,1.5-1.283,2.309-1.853
			c0.085-0.061,0.169-0.122,0.233-0.169c-0.175-0.188-0.337-0.367-0.504-0.542c-0.768-0.805-1.29-1.736-1.445-2.851
			c-0.179-1.279,0.072-2.466,0.801-3.539c0.533-0.786,1.216-1.431,1.983-1.98c0.463-0.332,0.956-0.624,1.436-0.933
			c0.079-0.052,0.162-0.099,0.241-0.146c-0.11-0.368-0.237-0.713-0.316-1.069c-0.515-2.313,0.256-4.173,2.062-5.628
			c0.964-0.777,2.106-1.217,3.29-1.541c1.916-0.525,3.864-0.657,5.841-0.483c3.435,0.303,6.194,1.876,8.424,4.448
			c0.187,0.215,0.372,0.353,0.653,0.423c1.621,0.408,2.912,1.328,3.914,2.648c1.206,1.588,1.847,3.384,1.897,5.384
			c0.027,1.076-0.014,2.147-0.273,3.2c-0.203,0.827-0.529,1.596-1.034,2.286c-0.028,0.038-0.052,0.081-0.084,0.133
			c0.182,0.403,0.363,0.809,0.547,1.214c0.486,1.076,0.943,2.164,1.222,3.317c0.354,1.467,0.392,2.929-0.084,4.381
			c-0.34,1.036-0.889,1.954-1.6,2.773c-0.336,0.387-0.688,0.766-1.071,1.103c-0.793,0.695-1.396,1.527-1.865,2.461
			c-0.879,1.75-1.332,3.605-1.326,5.566c0,0.142,0.023,0.282,0.031,0.423h13.236c3.211,0,5.814-2.604,5.814-5.815V34.532
			C171.557,31.321,168.954,28.718,165.743,28.718z"/>
	</g>
	<g id="HGrWGM_5_">
		<g>
			<path fill="none" d="M178.336,29.407c0,22.87,0,45.739,0,68.608c-22.87,0-45.739,0-68.608,0c0-22.87,0-45.739,0-68.608
				C132.597,29.407,155.466,29.407,178.336,29.407z M157.894,56.108c0.032-0.052,0.056-0.094,0.084-0.133
				c0.504-0.689,0.831-1.458,1.034-2.285c0.26-1.053,0.301-2.124,0.274-3.201c-0.051-1.999-0.691-3.795-1.897-5.383
				c-1.003-1.32-2.293-2.24-3.915-2.648c-0.281-0.071-0.467-0.208-0.653-0.422c-2.23-2.573-4.99-4.146-8.424-4.449
				c-1.977-0.174-3.925-0.042-5.841,0.483c-1.184,0.324-2.326,0.764-3.291,1.541c-1.806,1.456-2.577,3.314-2.062,5.628
				c0.08,0.356,0.206,0.702,0.316,1.07c-0.079,0.047-0.162,0.094-0.241,0.146c-0.48,0.309-0.972,0.601-1.436,0.933
				c-0.768,0.55-1.451,1.194-1.984,1.981c-0.728,1.073-0.979,2.26-0.801,3.539c0.155,1.114,0.678,2.045,1.446,2.851
				c0.167,0.174,0.329,0.353,0.503,0.542c-0.065,0.047-0.149,0.109-0.234,0.169c-0.808,0.569-1.592,1.168-2.308,1.852
				c-0.449,0.429-0.869,0.883-1.213,1.403c-0.263,0.398-0.478,0.818-0.573,1.292c-0.198,0.992-0.049,1.946,0.326,2.871
				c0.528,1.302,1.387,2.366,2.426,3.29c1.397,1.243,3.003,2.147,4.722,2.858c2.035,0.842,4.151,1.353,6.344,1.562
				c1.625,0.155,3.248,0.136,4.868-0.061c0.213-0.026,0.427-0.047,0.696-0.076c-0.09,0.12-0.142,0.188-0.192,0.255
				c-0.236,0.319-0.484,0.63-0.705,0.959c-1.987,2.963-2.631,6.198-1.786,9.665c0.741,3.04,2.286,5.653,4.549,7.825
				c0.653,0.627,1.39,1.145,2.236,1.487c0.686,0.277,1.389,0.394,2.13,0.271c1.035-0.172,2.47-1.207,2.757-2.509
				c0.134-0.61,0.189-1.224,0.187-1.843c-0.006-1.155-0.146-2.298-0.351-3.433c-0.278-1.542-0.579-3.08-0.864-4.621
				c-0.159-0.856-0.303-1.717-0.306-2.591c-0.006-1.96,0.447-3.816,1.326-5.566c0.469-0.934,1.072-1.765,1.865-2.46
				c0.384-0.337,0.735-0.716,1.071-1.103c0.711-0.819,1.26-1.737,1.6-2.773c0.477-1.453,0.439-2.915,0.084-4.382
				c-0.278-1.153-0.735-2.241-1.222-3.317C158.258,56.917,158.076,56.512,157.894,56.108z"/>
			<path fill-rule="evenodd" clip-rule="evenodd" d="M157.894,56.108c0.182,0.404,0.364,0.81,0.547,1.214
				c0.487,1.076,0.943,2.164,1.222,3.317c0.354,1.467,0.392,2.929-0.084,4.382c-0.34,1.036-0.889,1.954-1.6,2.773
				c-0.335,0.387-0.687,0.766-1.071,1.103c-0.793,0.695-1.396,1.526-1.865,2.46c-0.879,1.75-1.333,3.606-1.326,5.566
				c0.003,0.874,0.147,1.735,0.306,2.591c0.285,1.541,0.586,3.079,0.864,4.621c0.205,1.134,0.345,2.277,0.351,3.433
				c0.003,0.62-0.052,1.233-0.187,1.843c-0.287,1.302-1.723,2.337-2.757,2.509c-0.742,0.124-1.445,0.007-2.13-0.271
				c-0.846-0.343-1.583-0.86-2.236-1.487c-2.263-2.172-3.809-4.786-4.549-7.825c-0.845-3.466-0.201-6.701,1.786-9.665
				c0.221-0.329,0.469-0.64,0.705-0.959c0.05-0.068,0.102-0.135,0.192-0.255c-0.27,0.029-0.483,0.05-0.696,0.076
				c-1.62,0.197-3.242,0.216-4.868,0.061c-2.192-0.208-4.309-0.719-6.344-1.562c-1.719-0.711-3.325-1.616-4.722-2.858
				c-1.039-0.924-1.898-1.988-2.426-3.29c-0.375-0.924-0.524-1.879-0.326-2.871c0.095-0.474,0.31-0.894,0.573-1.292
				c0.344-0.52,0.764-0.974,1.213-1.403c0.716-0.684,1.5-1.283,2.308-1.852c0.085-0.06,0.169-0.122,0.234-0.169
				c-0.175-0.188-0.337-0.367-0.503-0.542c-0.769-0.806-1.291-1.737-1.446-2.851c-0.179-1.279,0.073-2.465,0.801-3.539
				c0.533-0.787,1.216-1.431,1.984-1.981c0.463-0.332,0.956-0.624,1.436-0.933c0.08-0.051,0.162-0.098,0.241-0.146
				c-0.11-0.368-0.237-0.714-0.316-1.07c-0.515-2.314,0.256-4.172,2.062-5.628c0.964-0.777,2.107-1.217,3.291-1.541
				c1.916-0.525,3.864-0.657,5.841-0.483c3.435,0.302,6.194,1.876,8.424,4.449c0.186,0.214,0.372,0.352,0.653,0.422
				c1.621,0.409,2.912,1.328,3.915,2.648c1.206,1.588,1.847,3.384,1.897,5.383c0.027,1.077-0.014,2.148-0.274,3.201
				c-0.204,0.827-0.53,1.596-1.034,2.285C157.95,56.014,157.926,56.056,157.894,56.108z M145.101,62.285
				c-0.043,0.026-0.077,0.042-0.107,0.064c-0.799,0.59-1.678,1.036-2.592,1.417c-1.39,0.579-2.828,0.992-4.313,1.237
				c-0.292,0.048-0.294,0.045-0.426-0.212c0.193-0.032,0.385-0.055,0.573-0.095c1.19-0.256,2.309-0.711,3.403-1.232
				c0.893-0.425,1.757-0.902,2.535-1.519c0.511-0.405,0.995-0.838,1.172-1.533c0.331,0.023,0.654,0.045,0.99,0.069
				c-0.032,0.496-0.303,0.839-0.566,1.187c0.031,0.039,0.052,0.072,0.079,0.099c0.992,0.958,2.098,1.743,3.4,2.226
				c0.959,0.356,1.938,0.44,2.939,0.208c1.348-0.312,2.148-1.192,2.343-2.554c0.106-0.743,0.025-1.468-0.161-2.185
				c-0.403-1.555-1.177-2.919-2.17-4.166c-0.963-1.209-2.087-2.232-3.462-2.962c-0.887-0.472-1.832-0.716-2.837-0.744
				c-1.437-0.041-2.833,0.2-4.213,0.568c-2.615,0.698-5.073,1.776-7.414,3.125c-1.446,0.833-2.816,1.776-4.029,2.932
				c-0.697,0.665-1.327,1.382-1.769,2.249c-0.385,0.755-0.472,1.545-0.3,2.37c0.199,0.959,0.658,1.792,1.246,2.562
				c0.923,1.209,2.11,2.097,3.435,2.812c2.8,1.511,5.817,2.24,8.974,2.441c1.667,0.105,3.328,0.021,4.98-0.22
				c0.176-0.025,0.297-0.102,0.425-0.216c0.607-0.54,1.223-1.07,1.838-1.602c0.056-0.048,0.125-0.082,0.16-0.104
				c0.117,0.089,0.213,0.161,0.32,0.242c-0.112,0.09-0.187,0.151-0.263,0.211c-1.154,0.908-2.198,1.926-3.069,3.114
				c-1.783,2.431-2.606,5.143-2.321,8.157c0.216,2.286,1.026,4.358,2.377,6.214c0.823,1.13,1.799,2.102,3.007,2.824
				c0.484,0.289,0.993,0.522,1.547,0.645c0.904,0.199,1.626-0.12,2.089-0.923c0.215-0.373,0.347-0.776,0.438-1.194
				c0.254-1.167,0.235-2.348,0.154-3.527c-0.111-1.614-0.368-3.21-0.713-4.79c-0.306-1.405-0.398-2.817-0.184-4.24
				c0.395-2.634,1.541-4.886,3.449-6.752c0.449-0.439,0.875-0.905,1.276-1.389c0.641-0.774,1.131-1.638,1.423-2.607
				c0.387-1.286,0.34-2.58,0.085-3.878c-0.27-1.373-0.73-2.686-1.242-3.983c-0.013-0.032-0.032-0.062-0.065-0.124
				c-0.409,0.409-0.831,0.753-1.328,1.039c-0.051-0.108-0.09-0.191-0.135-0.287c0.741-0.42,1.194-1.058,1.518-1.802
				c0.046-0.106,0.087-0.215,0.127-0.324c0.268-0.722,0.406-1.472,0.484-2.235c0.109-1.062,0.158-2.129,0.011-3.188
				c-0.37-2.678-1.756-4.666-4.133-5.958c-0.062-0.034-0.13-0.057-0.237-0.104c0.051,0.154,0.089,0.261,0.124,0.37
				c0.395,1.244,0.147,2.332-0.804,3.237c-0.216,0.206-0.467,0.375-0.703,0.561c-0.059,0.046-0.118,0.092-0.182,0.142
				c0.049,0.092,0.089,0.168,0.13,0.244c0.257,0.479,0.465,0.978,0.616,1.5c0.276,0.961,0.372,1.936,0.214,2.929
				c-0.101,0.633-0.338,1.208-0.739,1.701c0.014,0.032,0.018,0.052,0.029,0.066c0.049,0.06,0.1,0.118,0.15,0.177
				c0.977,1.141,1.783,2.388,2.329,3.792c0.407,1.047,0.664,2.123,0.564,3.259c-0.139,1.588-0.958,2.669-2.449,3.216
				c-1.336,0.49-2.69,0.496-4.04,0.032c-1.447-0.497-2.671-1.347-3.772-2.39C145.245,62.418,145.175,62.354,145.101,62.285z
				 M132.187,55.516c0.132-0.08,0.24-0.143,0.345-0.209c2.631-1.669,5.43-2.966,8.438-3.797c1.337-0.369,2.695-0.612,4.085-0.672
				c1.843-0.081,3.531,0.369,5.042,1.431c0.49,0.344,0.946,0.736,1.417,1.107c0.082,0.064,0.155,0.138,0.265,0.237
				c0.111-0.244,0.223-0.447,0.3-0.663c0.321-0.9,0.325-1.823,0.145-2.749c-0.233-1.196-0.849-2.194-1.675-3.066
				c-1.213-1.28-2.714-2.065-4.408-2.505c-1.207-0.313-2.436-0.31-3.664-0.215c-1.86,0.143-3.673,0.533-5.438,1.142
				c-1.442,0.498-2.82,1.129-4.06,2.032c-0.638,0.464-1.214,0.993-1.675,1.637c-0.604,0.845-0.942,1.78-0.875,2.827
				C130.519,53.442,131.208,54.538,132.187,55.516z M151.817,47.252c0.558-0.441,0.988-0.958,1.191-1.643
				c0.229-0.768,0.074-1.494-0.254-2.197c-0.273-0.584-0.654-1.097-1.098-1.561c-1.25-1.305-2.744-2.23-4.452-2.801
				c-2.344-0.784-4.746-0.985-7.19-0.628c-0.932,0.136-1.835,0.385-2.687,0.8c-1.027,0.5-1.831,1.224-2.289,2.289
				c-0.565,1.313-0.511,2.636-0.031,3.96c0.012,0.033,0.044,0.057,0.068,0.085c0.065-0.025,0.12-0.044,0.173-0.066
				c2.714-1.122,5.53-1.805,8.469-1.939c0.942-0.043,1.876,0.012,2.792,0.266c2.069,0.576,3.843,1.614,5.197,3.312
				C151.736,47.167,151.77,47.2,151.817,47.252z"/>
			<path fill-rule="evenodd" clip-rule="evenodd" fill="none" d="M145.101,62.285c0.074,0.068,0.145,0.133,0.213,0.198
				c1.101,1.043,2.325,1.893,3.772,2.39c1.35,0.464,2.704,0.458,4.04-0.032c1.491-0.547,2.31-1.627,2.449-3.216
				c0.1-1.137-0.157-2.212-0.564-3.259c-0.546-1.404-1.352-2.651-2.329-3.792c-0.05-0.059-0.101-0.117-0.15-0.177
				c-0.012-0.014-0.016-0.034-0.029-0.066c0.401-0.493,0.639-1.068,0.739-1.701c0.158-0.993,0.062-1.967-0.214-2.929
				c-0.15-0.523-0.358-1.021-0.616-1.5c-0.041-0.076-0.082-0.152-0.13-0.244c0.064-0.05,0.123-0.096,0.182-0.142
				c0.235-0.186,0.487-0.354,0.703-0.561c0.952-0.906,1.199-1.994,0.804-3.237c-0.034-0.108-0.072-0.216-0.124-0.37
				c0.107,0.046,0.175,0.069,0.237,0.104c2.377,1.292,3.764,3.28,4.133,5.958c0.146,1.059,0.098,2.126-0.011,3.188
				c-0.078,0.763-0.217,1.513-0.484,2.235c-0.04,0.109-0.081,0.218-0.127,0.324c-0.324,0.744-0.776,1.382-1.518,1.802
				c0.045,0.096,0.084,0.178,0.135,0.287c0.497-0.285,0.918-0.63,1.328-1.039c0.033,0.062,0.052,0.092,0.065,0.124
				c0.512,1.297,0.972,2.611,1.242,3.983c0.255,1.298,0.302,2.592-0.085,3.878c-0.292,0.969-0.782,1.833-1.423,2.607
				c-0.401,0.484-0.827,0.95-1.276,1.389c-1.908,1.867-3.054,4.119-3.449,6.752c-0.214,1.423-0.122,2.834,0.184,4.24
				c0.345,1.58,0.602,3.176,0.713,4.79c0.081,1.18,0.1,2.361-0.154,3.527c-0.091,0.418-0.223,0.822-0.438,1.194
				c-0.463,0.803-1.185,1.122-2.089,0.923c-0.554-0.122-1.063-0.355-1.547-0.645c-1.208-0.722-2.185-1.693-3.007-2.824
				c-1.351-1.856-2.161-3.928-2.377-6.214c-0.285-3.015,0.539-5.726,2.321-8.157c0.871-1.188,1.915-2.206,3.069-3.114
				c0.076-0.06,0.15-0.121,0.263-0.211c-0.107-0.081-0.203-0.153-0.32-0.242c-0.035,0.023-0.104,0.056-0.16,0.104
				c-0.615,0.532-1.23,1.062-1.838,1.602c-0.127,0.114-0.249,0.19-0.425,0.216c-1.653,0.241-3.313,0.326-4.98,0.22
				c-3.157-0.201-6.173-0.93-8.974-2.441c-1.325-0.715-2.512-1.603-3.435-2.812c-0.588-0.77-1.047-1.602-1.246-2.562
				c-0.171-0.825-0.085-1.615,0.3-2.37c0.442-0.867,1.072-1.584,1.769-2.249c1.212-1.156,2.583-2.099,4.029-2.932
				c2.341-1.349,4.798-2.427,7.414-3.125c1.38-0.369,2.777-0.609,4.213-0.568c1.005,0.028,1.95,0.272,2.837,0.744
				c1.375,0.73,2.499,1.753,3.462,2.962c0.993,1.247,1.767,2.611,2.17,4.166c0.186,0.717,0.267,1.442,0.161,2.185
				c-0.195,1.361-0.996,2.242-2.343,2.554c-1.001,0.232-1.979,0.148-2.939-0.208c-1.302-0.483-2.408-1.268-3.4-2.226
				c-0.027-0.026-0.047-0.06-0.079-0.099c0.263-0.348,0.534-0.691,0.566-1.187c-0.335-0.023-0.659-0.046-0.99-0.069
				c-0.177,0.694-0.661,1.127-1.172,1.533c-0.777,0.617-1.642,1.094-2.535,1.519c-1.094,0.521-2.212,0.977-3.403,1.232
				c-0.188,0.041-0.379,0.063-0.573,0.095c0.132,0.257,0.134,0.261,0.426,0.212c1.485-0.246,2.923-0.658,4.313-1.237
				c0.914-0.381,1.792-0.827,2.592-1.417C145.023,62.328,145.058,62.311,145.101,62.285z"/>
			<path fill-rule="evenodd" clip-rule="evenodd" fill="none" d="M132.187,55.516c-0.979-0.979-1.668-2.074-1.758-3.463
				c-0.067-1.046,0.271-1.982,0.875-2.827c0.461-0.645,1.037-1.173,1.675-1.637c1.24-0.903,2.617-1.534,4.06-2.032
				c1.764-0.608,3.577-0.999,5.438-1.142c1.229-0.095,2.458-0.099,3.664,0.215c1.693,0.44,3.194,1.225,4.408,2.505
				c0.827,0.872,1.442,1.87,1.675,3.066c0.18,0.926,0.177,1.849-0.145,2.749c-0.077,0.216-0.188,0.419-0.3,0.663
				c-0.11-0.099-0.184-0.172-0.265-0.237c-0.47-0.372-0.927-0.763-1.417-1.107c-1.511-1.062-3.199-1.512-5.042-1.431
				c-1.39,0.06-2.748,0.303-4.085,0.672c-3.007,0.831-5.806,2.128-8.438,3.797C132.427,55.374,132.319,55.436,132.187,55.516z"/>
			<path fill-rule="evenodd" clip-rule="evenodd" fill="none" d="M151.817,47.252c-0.047-0.052-0.082-0.085-0.111-0.123
				c-1.354-1.698-3.128-2.736-5.197-3.312c-0.915-0.254-1.85-0.309-2.792-0.266c-2.939,0.135-5.755,0.817-8.469,1.939
				c-0.054,0.022-0.108,0.042-0.173,0.066c-0.023-0.028-0.056-0.053-0.068-0.085c-0.48-1.324-0.535-2.646,0.031-3.96
				c0.458-1.065,1.262-1.79,2.289-2.289c0.852-0.415,1.755-0.664,2.687-0.8c2.445-0.357,4.847-0.156,7.19,0.628
				c1.708,0.571,3.203,1.496,4.452,2.801c0.444,0.464,0.825,0.977,1.098,1.561c0.329,0.703,0.483,1.429,0.254,2.197
				C152.805,46.294,152.375,46.811,151.817,47.252z"/>
		</g>
	</g>
</g>
<g>
	<path fill="#231F20" d="M168.055,176.26h-47.44c-3.212,0-5.815,2.604-5.815,5.815v37.026c0,3.211,2.603,5.814,5.815,5.814h30.046
		c0.001-4.861,0.002-9.725,0.003-14.586c0-1.1,0-2.199,0-3.298c0-0.328-0.007-0.334-0.339-0.334c-1.478-0.001-2.956,0-4.435-0.001
		c-0.292,0-0.307-0.014-0.307-0.299c-0.001-2.095-0.001-4.189,0-6.283c0-0.294,0.016-0.308,0.323-0.309c1.434,0,2.867,0,4.301,0
		c0.456,0,0.456,0,0.457-0.446c0.001-1.953-0.02-3.907,0.009-5.86c0.056-3.886,2.41-6.945,6.144-8.033
		c1.382-0.403,2.799-0.541,4.23-0.491c1.357,0.048,2.712,0.145,4.067,0.225c0.264,0.016,0.299,0.063,0.293,0.335
		c-0.032,1.544-0.065,3.088-0.1,4.632c-0.009,0.416-0.036,0.831-0.036,1.246c0,0.208-0.079,0.27-0.277,0.267
		c-1.381-0.015-2.762-0.027-4.144-0.026c-0.333,0-0.669,0.029-0.997,0.083c-1.116,0.185-1.712,0.826-1.846,1.972
		c-0.033,0.287-0.05,0.577-0.05,0.866c-0.005,1.611-0.002,3.224-0.002,4.835c0,0.396,0,0.397,0.389,0.397c2.236,0,4.472,0,6.708,0
		c0.401,0,0.409,0.001,0.391,0.39c-0.065,1.386-0.136,2.772-0.205,4.158c-0.034,0.689-0.073,1.379-0.094,2.069
		c-0.007,0.215-0.085,0.277-0.294,0.277c-2.176-0.006-4.353-0.004-6.529-0.004c-0.365,0-0.366,0.001-0.366,0.37
		c0,3.076,0,6.15,0,9.226c0.001,0,0.002,0,0.003,0c0,2.874,0,5.749,0.003,8.623h10.092c3.211,0,5.815-2.604,5.815-5.814v-37.026
		C173.87,178.863,171.266,176.26,168.055,176.26z"/>
</g>
<g>
	<path fill="#231F20" d="M82.041,176.76h-47.44c-3.212,0-5.815,2.604-5.815,5.815v37.026c0,3.211,2.603,5.814,5.815,5.814h47.44
		c3.211,0,5.815-2.604,5.815-5.814v-37.026C87.856,179.363,85.252,176.76,82.041,176.76z M54.483,208.389
		c0.443,0.5,0.986,0.862,1.589,1.138c0.852,0.389,1.754,0.599,2.685,0.618c1.758,0.037,3.517,0.035,5.276,0.043
		c1.23,0.005,2.46,0.001,3.691,0.001c1.329,0,2.554,0.893,2.922,2.173c0.372,1.291,0.311,2.573-0.217,3.815
		c-0.25,0.589-0.657,1.059-1.206,1.397c-0.332,0.204-0.68,0.313-1.083,0.312c-4.232-0.01-8.465,0.014-12.698-0.02
		c-1.44-0.012-2.865-0.253-4.162-0.933c-0.456-0.239-0.871-0.577-1.258-0.923c-1.023-0.912-1.906-1.948-2.608-3.132
		c-0.657-1.107-1.068-2.295-1.193-3.58c-0.145-1.49-0.341-2.976-0.438-4.469c-0.071-1.091-0.021-2.189-0.021-3.285
		c-0.001-2.282,0-4.563,0-6.846c-0.001,0-0.001,0-0.002,0c0-2.486,0.03-4.973-0.016-7.458c-0.017-0.907,0.386-1.527,1.017-2.066
		c0.56-0.479,1.233-0.711,1.951-0.813c0.974-0.139,1.935-0.1,2.86,0.271c0.725,0.291,1.278,0.78,1.645,1.475
		c0.132,0.251,0.204,0.514,0.203,0.805c-0.008,1.957-0.007,3.914-0.008,5.871c0,0.349,0,0.35,0.352,0.35
		c4.749,0,9.498,0.006,14.247-0.005c1.153-0.002,1.925,0.562,2.453,1.526c0.264,0.482,0.369,1.018,0.41,1.562
		c0.068,0.917-0.018,1.811-0.452,2.641c-0.317,0.604-0.792,1.045-1.435,1.281c-0.192,0.071-0.409,0.107-0.614,0.107
		c-4.857,0.006-9.715,0.004-14.572,0.004c-0.385,0-0.385,0.001-0.385,0.393c0,1.6,0.01,3.2-0.003,4.8
		C53.406,206.562,53.739,207.547,54.483,208.389z"/>
</g>
<g>
	<g>
		<path fill="#231F20" d="M268.244,177.233c2.206,0,4,1.794,4,4v4.354v5.396v25.688c0,2.43-2.056,5-4,5h-48.417
			c-2.206,0-4-1.795-4-4v-32.083c0-2.206,1.794-4,4-4h28.854h2.016l0.762-1.866c0.617-1.512,2.07-2.488,3.701-2.488H268.244
			 M268.244,174.233H255.16c-2.93,0-5.436,1.801-6.479,4.354h-28.854c-3.866,0-7,3.134-7,7v32.083c0,3.865,3.134,7,7,7h48.417
			c3.866,0,7-4.135,7-8v-25.688v-5.396v-4.354C275.244,177.367,272.11,174.233,268.244,174.233L268.244,174.233z"/>
	</g>
	<g>
		<polygon fill="#231F20" points="246.121,224.066 246.121,206.315 228.871,218.316 229.121,187.315 219.871,196.065 
			210.621,187.315 210.871,218.316 193.621,206.315 193.621,224.066 219.871,241.316 		"/>
		<polygon fill="#231F20" points="228.871,178.315 228.871,169.565 219.871,178.44 210.871,169.565 210.871,178.315 
			219.871,187.315 		"/>
	</g>
</g>
<g>
	<g>
		<path fill="#231F20" d="M279.378,253.207c1.552,0,2.815,1.263,2.815,2.815v37.026c0,1.552-1.264,2.814-2.815,2.814h-47.44
			c-1.552,0-2.814-1.263-2.814-2.814v-37.026c0-1.553,1.263-2.815,2.814-2.815H279.378 M279.378,250.207h-47.44
			c-3.211,0-5.814,2.604-5.814,5.815v37.026c0,3.211,2.604,5.814,5.814,5.814h47.44c3.212,0,5.815-2.604,5.815-5.814v-37.026
			C285.193,252.81,282.59,250.207,279.378,250.207L279.378,250.207z"/>
	</g>
	<g>
		<polygon fill="#231F20" points="264.689,234.397 252.138,246.948 272.821,250.661 250.724,272.404 263.452,272.757 
			263.806,285.486 285.549,263.388 289.261,284.071 301.812,271.52 295.448,240.761 		"/>
		<polygon fill="#231F20" points="244.537,278.945 238.35,285.132 250.989,285.22 251.077,297.86 257.265,291.672 257.265,278.945 
					"/>
	</g>
</g>
<g>
	<g>
		<path fill="#231F20" d="M92.85,248.285H52.2l-10.663,15.328l31-0.25l-8.75,9.25l8.75,9.25l-31-0.25L52.2,296.941h40.65
			c3.211,0,5.815-2.604,5.815-5.814V254.1C98.665,250.888,96.061,248.285,92.85,248.285z M90.287,281.613h-8.75l-9-9l9-9h8.75
			l-8.875,9L90.287,281.613z"/>
	</g>
	<g>
		<g>
			<path fill="#231F20" d="M53.537,246.363l-12,17.25l31-0.25l-8.75,9.25l8.75,9.25l-31-0.25l12,17.25h-17.75l-17.25-26.25
				l17.25-26.25H53.537 M59.278,243.363h-5.742h-17.75h-1.618l-0.889,1.353l-17.25,26.25l-1.083,1.647l1.083,1.647l17.25,26.25
				l0.889,1.353h1.618h17.75h5.742L56,297.15l-8.689-12.49l25.202,0.203l7.045,0.057l-4.842-5.118l-6.8-7.188l6.8-7.188l4.842-5.118
				l-7.045,0.057l-25.202,0.203L56,248.076L59.278,243.363L59.278,243.363z"/>
		</g>
		<g>
			<path fill="#231F20" d="M90.287,263.613l-8.875,9l8.875,9h-8.75l-9-9l9-9H90.287 M97.458,260.613h-7.171h-8.75h-1.243
				l-0.878,0.879l-9,9l-2.122,2.121l2.122,2.121l9,9l0.878,0.879h1.243h8.75h7.171l-5.035-5.106l-6.798-6.894l6.798-6.894
				L97.458,260.613L97.458,260.613z"/>
		</g>
	</g>
</g>
<g>
	<path fill="#231F20" d="M182.594,281.613l-31,0.25l8.75-9.25l-8.75-9.25l31,0.25l-10.663-15.328h-40.65
		c-3.211,0-5.815,2.604-5.815,5.814v37.026c0,3.212,2.604,5.815,5.815,5.815h40.65L182.594,281.613z M133.844,281.613l8.875-9
		l-8.875-9h8.75l9,9l-9,9H133.844z"/>
</g>
<g>
	<g>
		<path fill="#231F20" d="M188.344,246.363l17.25,26.25l-17.25,26.25h-17.75l12-17.25l-31,0.25l8.75-9.25l-8.75-9.25l31,0.25
			l-12-17.25H188.344 M189.962,243.363h-1.618h-17.75h-5.742l3.279,4.713l8.689,12.49l-25.202-0.203l-7.045-0.057l4.842,5.118
			l6.8,7.188l-6.8,7.188l-4.842,5.118l7.045-0.057l25.202-0.203l-8.689,12.49l-3.279,4.713h5.742h17.75h1.618l0.889-1.353
			l17.25-26.25l1.083-1.647l-1.083-1.647l-17.25-26.25L189.962,243.363L189.962,243.363z"/>
	</g>
	<g>
		<path fill="#231F20" d="M142.594,263.613l9,9l-9,9h-8.75l8.875-9l-8.875-9H142.594 M143.837,260.613h-1.243h-8.75h-7.171
			l5.035,5.106l6.798,6.894l-6.798,6.894l-5.035,5.106h7.171h8.75h1.243l0.878-0.879l9-9l2.122-2.121l-2.122-2.121l-9-9
			L143.837,260.613L143.837,260.613z"/>
	</g>
</g>
</svg>
