<?xml version="1.0" encoding="utf-8"?>
<!-- Generator: Adobe Illustrator 16.2.1, SVG Export Plug-In . SVG Version: 6.00 Build 0)  -->
<!DOCTYPE svg PUBLIC "-//W3C//DTD SVG 1.1//EN" "http://www.w3.org/Graphics/SVG/1.1/DTD/svg11.dtd">
<svg version="1.1" id="Layer_1" xmlns="http://www.w3.org/2000/svg" xmlns:xlink="http://www.w3.org/1999/xlink" x="0px" y="0px"
	 width="90px" height="90px" viewBox="0 0 90 90" enable-background="new 0 0 90 90" xml:space="preserve">
<g>
	<g>
		<path d="M60.409,31.577c1.553,0,2.816,1.263,2.816,2.815v37.025c0,1.552-1.264,2.814-2.816,2.814H12.97
			c-1.552,0-2.814-1.263-2.814-2.814V34.393c0-1.553,1.263-2.815,2.814-2.815H60.409 M60.409,28.577H12.97
			c-3.211,0-5.814,2.604-5.814,5.815v37.025c0,3.211,2.604,5.814,5.814,5.814h47.439c3.213,0,5.816-2.604,5.816-5.814V34.393
			C66.226,31.181,63.622,28.577,60.409,28.577L60.409,28.577z"/>
	</g>
	<g>
		<polygon points="45.722,12.768 33.17,25.318 53.853,29.031 31.756,50.773 44.484,51.127 44.838,63.855 66.581,41.759 
			70.292,62.441 82.845,49.891 76.479,19.132 		"/>
		<polygon points="25.569,57.314 19.382,63.502 32.021,63.59 32.109,76.23 38.297,70.043 38.297,57.314 		"/>
	</g>
</g>
</svg>
