<?xml version="1.0" encoding="utf-8"?>
<!-- Generator: Adobe Illustrator 16.2.1, SVG Export Plug-In . SVG Version: 6.00 Build 0)  -->
<!DOCTYPE svg PUBLIC "-//W3C//DTD SVG 1.1//EN" "http://www.w3.org/Graphics/SVG/1.1/DTD/svg11.dtd">
<svg version="1.1" id="Layer_1" xmlns="http://www.w3.org/2000/svg" xmlns:xlink="http://www.w3.org/1999/xlink" x="0px" y="0px"
	 width="442.035px" height="467.708px" viewBox="0 0 442.035 467.708" enable-background="new 0 0 442.035 467.708"
	 xml:space="preserve">
<g>
	<g>
		<path d="M393.824,109.491h-171.69c-2.182,11.78-6.956,23.098-14.211,33.918c-1.601,2.387-3.401,4.64-5.11,6.956
			c-0.37,0.497-0.744,0.985-1.396,1.851c1.955-0.214,3.508-0.362,5.053-0.553c11.754-1.424,23.521-1.566,35.319-0.439
			c15.907,1.516,31.262,5.213,46.024,11.329c12.472,5.166,24.117,11.726,34.256,20.738c7.54,6.702,13.77,14.419,17.601,23.862
			c2.721,6.71,3.798,13.632,2.367,20.831c-0.688,3.436-2.245,6.482-4.158,9.373c-2.495,3.771-5.54,7.064-8.801,10.176
			c-5.191,4.959-10.884,9.31-16.75,13.439c-0.617,0.438-1.224,0.885-1.692,1.227c1.269,1.366,2.443,2.664,3.657,3.932
			c5.568,5.839,9.357,12.597,10.485,20.683c1.295,9.28-0.523,17.89-5.811,25.676c-3.869,5.704-8.822,10.381-14.391,14.369
			c-3.358,2.408-6.936,4.527-10.414,6.766c-0.576,0.376-1.177,0.716-1.751,1.063c0.801,2.671,1.724,5.172,2.297,7.759
			c3.732,16.784-1.857,30.274-14.965,40.832c-6.992,5.641-15.283,8.829-23.869,11.18c-13.901,3.812-28.036,4.77-42.378,3.507
			c-24.918-2.196-44.942-13.611-61.117-32.272c-1.354-1.558-2.7-2.557-4.741-3.068c-11.762-2.961-21.127-9.634-28.397-19.214
			c-8.75-11.521-13.398-24.551-13.766-39.062c-0.2-7.807,0.098-15.58,1.983-23.218c1.473-6.001,3.841-11.577,7.503-16.585
			c0.206-0.277,0.375-0.59,0.61-0.965c-1.318-2.926-2.637-5.866-3.968-8.807c-3.527-7.809-6.843-15.7-8.864-24.068
			c-2.571-10.643-2.839-21.248,0.61-31.785c2.464-7.517,6.447-14.177,11.605-20.122c2.438-2.806,4.989-5.555,7.772-8
			c5.753-5.044,10.126-11.081,13.534-17.854c6.375-12.698,9.663-26.159,9.62-40.386c-0.003-1.027-0.169-2.043-0.221-3.068H49.631
			c-23.296,0-42.186,18.89-42.186,42.193v268.635c0,23.297,18.89,42.187,42.186,42.187h344.193c23.303,0,42.191-18.89,42.191-42.187
			V151.684C436.016,128.38,417.127,109.491,393.824,109.491z"/>
	</g>
	<g id="HGrWGM_1_">
		<g>
			<path fill="none" d="M-41.736,457.509c0-165.928,0-331.849,0-497.774c165.924,0,331.845,0,497.768,0
				c0,165.925,0,331.847,0,497.774C290.109,457.509,124.188,457.509-41.736,457.509z M106.575,263.787
				c-0.235,0.368-0.405,0.678-0.61,0.963c-3.66,5.002-6.026,10.578-7.503,16.579c-1.884,7.638-2.184,15.403-1.987,23.225
				c0.369,14.496,5.016,27.533,13.767,39.054c7.278,9.58,16.64,16.254,28.4,19.216c2.038,0.51,3.387,1.509,4.737,3.06
				c16.179,18.671,36.203,30.084,61.122,32.282c14.341,1.261,28.474,0.303,42.376-3.501c8.588-2.352,16.877-5.539,23.877-11.181
				c13.094-10.569,18.691-24.047,14.955-40.839c-0.571-2.58-1.494-5.086-2.295-7.766c0.574-0.34,1.169-0.68,1.752-1.049
				c3.483-2.245,7.056-4.363,10.414-6.773c5.569-3.996,10.521-8.664,14.397-14.369c5.271-7.793,7.1-16.395,5.811-25.677
				c-1.136-8.083-4.919-14.836-10.501-20.689c-1.204-1.26-2.38-2.557-3.648-3.925c0.476-0.341,1.077-0.793,1.692-1.226
				c5.867-4.13,11.548-8.479,16.751-13.44c3.26-3.109,6.305-6.404,8.799-10.174c1.913-2.891,3.472-5.938,4.158-9.374
				c1.44-7.191,0.354-14.122-2.366-20.828c-3.832-9.444-10.061-17.164-17.6-23.866c-10.14-9.016-21.786-15.576-34.257-20.739
				c-14.765-6.11-30.126-9.816-46.024-11.329c-11.798-1.123-23.565-0.985-35.32,0.442c-1.549,0.189-3.098,0.341-5.053,0.554
				c0.656-0.872,1.031-1.361,1.396-1.853c1.713-2.318,3.511-4.574,5.112-6.961c14.418-21.5,19.092-44.97,12.96-70.12
				c-5.375-22.054-16.589-41.016-33.008-56.774c-4.739-4.548-10.082-8.303-16.222-10.79c-4.974-2.012-10.076-2.86-15.456-1.963
				c-7.508,1.248-17.923,8.754-20.006,18.202c-0.973,4.429-1.373,8.878-1.352,13.374c0.042,8.382,1.058,16.676,2.547,24.905
				c2.018,11.187,4.202,22.347,6.27,33.524c1.152,6.213,2.199,12.458,2.22,18.8c0.046,14.224-3.24,27.687-9.621,40.386
				c-3.404,6.773-7.776,12.807-13.53,17.847c-2.788,2.445-5.333,5.197-7.769,8.004c-5.156,5.943-9.138,12.599-11.605,20.118
				c-3.457,10.538-3.184,21.146-0.612,31.794c2.019,8.359,5.333,16.255,8.864,24.062
				C103.937,257.906,105.257,260.853,106.575,263.787z"/>
			<path fill-rule="evenodd" clip-rule="evenodd" d="M106.575,263.787c-1.318-2.935-2.639-5.881-3.968-8.815
				c-3.531-7.807-6.845-15.702-8.864-24.062c-2.572-10.648-2.844-21.256,0.612-31.794c2.467-7.519,6.449-14.175,11.605-20.118
				c2.436-2.807,4.981-5.559,7.769-8.004c5.754-5.041,10.126-11.074,13.53-17.847c6.38-12.699,9.667-26.162,9.621-40.386
				c-0.021-6.342-1.068-12.587-2.22-18.8c-2.068-11.177-4.252-22.337-6.27-33.524c-1.489-8.229-2.505-16.523-2.547-24.905
				c-0.021-4.496,0.379-8.945,1.352-13.374c2.083-9.448,12.499-16.954,20.006-18.202c5.38-0.897,10.482-0.049,15.456,1.963
				c6.14,2.487,11.482,6.242,16.222,10.79c16.419,15.758,27.633,34.721,33.008,56.774c6.132,25.149,1.458,48.619-12.96,70.12
				c-1.601,2.387-3.399,4.643-5.112,6.961c-0.365,0.492-0.74,0.981-1.396,1.853c1.956-0.213,3.504-0.365,5.053-0.554
				c11.754-1.427,23.522-1.565,35.32-0.442c15.898,1.513,31.26,5.219,46.024,11.329c12.471,5.163,24.117,11.723,34.257,20.739
				c7.539,6.702,13.768,14.422,17.6,23.866c2.721,6.706,3.807,13.637,2.366,20.828c-0.687,3.436-2.245,6.483-4.158,9.374
				c-2.494,3.77-5.539,7.064-8.799,10.174c-5.203,4.961-10.884,9.311-16.751,13.44c-0.615,0.433-1.217,0.885-1.692,1.226
				c1.269,1.368,2.444,2.665,3.648,3.925c5.582,5.854,9.365,12.606,10.501,20.689c1.289,9.282-0.54,17.884-5.811,25.677
				c-3.876,5.705-8.828,10.373-14.397,14.369c-3.358,2.41-6.931,4.528-10.414,6.773c-0.583,0.369-1.178,0.709-1.752,1.049
				c0.801,2.68,1.724,5.186,2.295,7.766c3.736,16.792-1.861,30.27-14.955,40.839c-7,5.642-15.289,8.829-23.877,11.181
				c-13.902,3.804-28.035,4.762-42.376,3.501c-24.919-2.198-44.943-13.611-61.122-32.282c-1.35-1.551-2.7-2.55-4.737-3.06
				c-11.76-2.962-21.123-9.636-28.4-19.216c-8.751-11.521-13.397-24.558-13.767-39.054c-0.197-7.821,0.103-15.587,1.987-23.225
				c1.478-6.001,3.844-11.577,7.503-16.579C106.17,264.465,106.34,264.155,106.575,263.787z M199.394,218.965
				c0.314-0.185,0.561-0.312,0.776-0.468c5.8-4.28,12.179-7.517,18.804-10.281c10.084-4.202,20.52-7.196,31.297-8.977
				c2.12-0.352,2.132-0.326,3.096,1.54c-1.403,0.231-2.793,0.397-4.158,0.692c-8.638,1.856-16.757,5.158-24.692,8.938
				c-6.475,3.085-12.746,6.549-18.387,11.02c-3.708,2.949-7.218,6.088-8.501,11.126c-2.398-0.171-4.747-0.327-7.181-0.496
				c0.233-3.601,2.202-6.096,4.108-8.617c-0.227-0.283-0.375-0.524-0.571-0.715c-7.197-6.951-15.218-12.644-24.665-16.15
				c-6.963-2.587-14.058-3.193-21.325-1.51c-9.776,2.264-15.586,8.655-17,18.531c-0.77,5.385-0.181,10.651,1.169,15.851
				c2.921,11.279,8.541,21.178,15.743,30.219c6.986,8.771,15.146,16.196,25.119,21.498c6.436,3.42,13.286,5.192,20.582,5.397
				c10.421,0.296,20.558-1.446,30.568-4.124c18.976-5.065,36.801-12.88,53.783-22.674c10.494-6.051,20.442-12.887,29.234-21.27
				c5.052-4.824,9.629-10.033,12.832-16.324c2.799-5.472,3.421-11.208,2.183-17.189c-1.447-6.964-4.778-13-9.043-18.586
				c-6.694-8.771-15.303-15.219-24.916-20.402c-20.315-10.961-42.209-16.254-65.104-17.709c-12.101-0.765-24.146-0.149-36.138,1.598
				c-1.276,0.184-2.159,0.74-3.083,1.565c-4.405,3.918-8.875,7.766-13.334,11.624c-0.403,0.351-0.904,0.592-1.157,0.759
				c-0.851-0.645-1.549-1.169-2.325-1.757c0.816-0.655,1.356-1.098,1.905-1.53c8.377-6.59,15.951-13.976,22.266-22.591
				c12.935-17.639,18.908-37.311,16.842-59.183c-1.565-16.586-7.447-31.617-17.246-45.086c-5.969-8.201-13.054-15.251-21.817-20.488
				c-3.511-2.097-7.207-3.791-11.229-4.676c-6.559-1.445-11.796,0.872-15.154,6.696c-1.559,2.702-2.515,5.633-3.177,8.666
				c-1.847,8.462-1.708,17.032-1.119,25.591c0.802,11.712,2.67,23.291,5.17,34.754c2.223,10.195,2.889,20.438,1.335,30.76
				c-2.865,19.109-11.18,35.447-25.02,48.991c-3.258,3.185-6.349,6.564-9.258,10.076c-4.652,5.615-8.208,11.884-10.327,18.917
				c-2.809,9.327-2.469,18.719-0.616,28.136c1.959,9.954,5.296,19.491,9.008,28.9c0.092,0.232,0.235,0.453,0.471,0.898
				c2.97-2.967,6.026-5.462,9.634-7.531c0.371,0.78,0.654,1.382,0.981,2.076c-5.378,3.048-8.661,7.673-11.01,13.071
				c-0.338,0.773-0.636,1.56-0.924,2.354c-1.941,5.236-2.947,10.685-3.515,16.212c-0.79,7.709-1.145,15.445-0.082,23.124
				c2.683,19.437,12.739,33.853,29.989,43.234c0.449,0.242,0.942,0.41,1.722,0.751c-0.372-1.119-0.648-1.896-0.897-2.685
				c-2.866-9.02-1.069-16.912,5.835-23.487c1.566-1.494,3.391-2.72,5.097-4.067c0.425-0.339,0.855-0.664,1.319-1.034
				c-0.354-0.666-0.648-1.219-0.946-1.771c-1.867-3.472-3.376-7.085-4.466-10.883c-2.001-6.972-2.697-14.043-1.553-21.249
				c0.729-4.591,2.453-8.764,5.364-12.342c-0.098-0.233-0.127-0.375-0.211-0.473c-0.354-0.441-0.723-0.866-1.087-1.292
				c-7.089-8.274-12.935-17.323-16.896-27.512c-2.954-7.596-4.816-15.396-4.092-23.644c1.007-11.527,6.95-19.367,17.769-23.334
				c9.696-3.554,19.519-3.6,29.311-0.234c10.497,3.607,19.377,9.771,27.367,17.34C198.346,218.001,198.855,218.47,199.394,218.965z
				 M293.086,268.079c-0.962,0.582-1.742,1.034-2.507,1.516c-19.088,12.109-39.394,21.524-61.218,27.549
				c-9.691,2.677-19.547,4.441-29.638,4.875c-13.366,0.586-25.613-2.68-36.577-10.381c-3.553-2.502-6.864-5.336-10.277-8.033
				c-0.59-0.469-1.125-1.001-1.923-1.723c-0.807,1.771-1.618,3.244-2.174,4.817c-2.332,6.534-2.355,13.223-1.05,19.938
				c1.693,8.687,6.159,15.92,12.155,22.247c8.803,9.282,19.693,14.979,31.979,18.174c8.753,2.274,17.671,2.246,26.579,1.559
				c13.506-1.041,26.655-3.868,39.453-8.282c10.471-3.612,20.46-8.188,29.458-14.744c4.619-3.365,8.802-7.206,12.144-11.883
				c4.394-6.119,6.847-12.907,6.351-20.503C305.188,283.128,300.186,275.18,293.086,268.079z M150.662,328.033
				c-4.045,3.204-7.167,6.952-8.643,11.918c-1.658,5.569-0.539,10.841,1.847,15.943c1.983,4.235,4.743,7.949,7.967,11.32
				c9.065,9.466,19.91,16.184,32.301,20.322c17.005,5.68,34.432,7.142,52.17,4.556c6.76-0.986,13.315-2.798,19.493-5.803
				c7.445-3.628,13.285-8.886,16.607-16.608c4.102-9.53,3.707-19.13,0.22-28.729c-0.086-0.234-0.318-0.418-0.487-0.618
				c-0.478,0.178-0.872,0.32-1.257,0.482c-19.694,8.135-40.123,13.093-61.448,14.07c-6.834,0.312-13.615-0.084-20.253-1.933
				c-15.013-4.175-27.885-11.714-37.709-24.025C151.253,328.658,151.006,328.417,150.662,328.033z"/>
			<path fill-rule="evenodd" clip-rule="evenodd" fill="none" d="M199.394,218.965c-0.538-0.495-1.047-0.964-1.546-1.439
				c-7.99-7.569-16.87-13.733-27.367-17.34c-9.792-3.365-19.615-3.319-29.311,0.234c-10.819,3.968-16.761,11.807-17.769,23.334
				c-0.724,8.248,1.139,16.048,4.092,23.644c3.962,10.188,9.807,19.237,16.896,27.512c0.364,0.426,0.733,0.851,1.087,1.292
				c0.084,0.098,0.114,0.239,0.211,0.473c-2.911,3.578-4.634,7.751-5.364,12.342c-1.144,7.206-0.448,14.277,1.553,21.249
				c1.09,3.798,2.6,7.411,4.466,10.883c0.298,0.553,0.592,1.105,0.946,1.771c-0.463,0.37-0.894,0.695-1.319,1.034
				c-1.706,1.348-3.531,2.573-5.097,4.067c-6.904,6.575-8.701,14.468-5.835,23.487c0.249,0.788,0.525,1.565,0.897,2.685
				c-0.78-0.341-1.272-0.509-1.722-0.751c-17.25-9.382-27.306-23.798-29.989-43.234c-1.063-7.679-0.708-15.415,0.082-23.124
				c0.568-5.527,1.574-10.976,3.515-16.212c0.289-0.794,0.586-1.58,0.924-2.354c2.349-5.398,5.632-10.023,11.01-13.071
				c-0.327-0.694-0.61-1.296-0.981-2.076c-3.607,2.069-6.664,4.564-9.634,7.531c-0.236-0.445-0.379-0.666-0.471-0.898
				c-3.712-9.409-7.049-18.946-9.008-28.9c-1.853-9.417-2.192-18.809,0.616-28.136c2.119-7.033,5.675-13.302,10.327-18.917
				c2.909-3.511,6-6.891,9.258-10.076c13.839-13.544,22.155-29.882,25.02-48.991c1.553-10.322,0.887-20.564-1.335-30.76
				c-2.5-11.463-4.368-23.042-5.17-34.754c-0.589-8.559-0.728-17.128,1.119-25.591c0.662-3.033,1.618-5.963,3.177-8.666
				c3.358-5.824,8.595-8.141,15.154-6.696c4.022,0.885,7.718,2.579,11.229,4.676c8.763,5.237,15.848,12.287,21.817,20.488
				c9.799,13.469,15.681,28.5,17.246,45.086c2.066,21.872-3.907,41.544-16.842,59.183c-6.314,8.616-13.889,16.001-22.266,22.591
				c-0.549,0.433-1.089,0.875-1.905,1.53c0.776,0.588,1.474,1.113,2.325,1.757c0.253-0.167,0.754-0.408,1.157-0.759
				c4.459-3.858,8.929-7.705,13.334-11.624c0.925-0.825,1.808-1.381,3.083-1.565c11.992-1.747,24.037-2.362,36.138-1.598
				c22.896,1.456,44.789,6.748,65.104,17.709c9.613,5.183,18.222,11.63,24.916,20.402c4.265,5.586,7.596,11.623,9.043,18.586
				c1.238,5.981,0.616,11.718-2.183,17.189c-3.203,6.291-7.78,11.5-12.832,16.324c-8.792,8.383-18.74,15.219-29.234,21.27
				c-16.982,9.794-34.808,17.608-53.783,22.674c-10.011,2.678-20.147,4.42-30.568,4.124c-7.296-0.205-14.146-1.978-20.582-5.397
				c-9.974-5.302-18.133-12.728-25.119-21.498c-7.202-9.041-12.821-18.939-15.743-30.219c-1.351-5.199-1.939-10.466-1.169-15.851
				c1.414-9.876,7.225-16.267,17-18.531c7.267-1.683,14.362-1.077,21.325,1.51c9.446,3.506,17.468,9.199,24.665,16.15
				c0.195,0.19,0.344,0.432,0.571,0.715c-1.907,2.521-3.875,5.017-4.108,8.617c2.434,0.169,4.783,0.325,7.181,0.496
				c1.283-5.038,4.793-8.177,8.501-11.126c5.641-4.471,11.913-7.935,18.387-11.02c7.936-3.78,16.055-7.082,24.692-8.938
				c1.365-0.294,2.755-0.461,4.158-0.692c-0.964-1.866-0.976-1.892-3.096-1.54c-10.777,1.781-21.213,4.775-31.297,8.977
				c-6.625,2.764-13.003,6-18.804,10.281C199.954,218.653,199.708,218.78,199.394,218.965z"/>
			<path fill-rule="evenodd" clip-rule="evenodd" fill="none" d="M293.086,268.079c7.1,7.101,12.102,15.049,12.755,25.125
				c0.496,7.596-1.957,14.384-6.351,20.503c-3.342,4.677-7.524,8.518-12.144,11.883c-8.998,6.556-18.987,11.132-29.458,14.744
				c-12.798,4.414-25.947,7.241-39.453,8.282c-8.908,0.688-17.826,0.716-26.579-1.559c-12.286-3.194-23.176-8.892-31.979-18.174
				c-5.997-6.327-10.462-13.561-12.155-22.247c-1.306-6.715-1.282-13.403,1.05-19.938c0.556-1.573,1.367-3.047,2.174-4.817
				c0.798,0.722,1.333,1.254,1.923,1.723c3.413,2.697,6.725,5.531,10.277,8.033c10.964,7.701,23.211,10.967,36.577,10.381
				c10.091-0.434,19.946-2.198,29.638-4.875c21.824-6.024,42.13-15.439,61.218-27.549
				C291.344,269.113,292.124,268.661,293.086,268.079z"/>
			<path fill-rule="evenodd" clip-rule="evenodd" fill="none" d="M150.662,328.033c0.344,0.384,0.591,0.625,0.807,0.896
				c9.824,12.312,22.696,19.851,37.709,24.025c6.638,1.849,13.418,2.245,20.253,1.933c21.325-0.978,41.754-5.936,61.448-14.07
				c0.385-0.162,0.779-0.305,1.257-0.482c0.169,0.2,0.401,0.384,0.487,0.618c3.487,9.6,3.882,19.199-0.22,28.729
				c-3.322,7.723-9.162,12.98-16.607,16.608c-6.178,3.005-12.733,4.816-19.493,5.803c-17.738,2.586-35.166,1.124-52.17-4.556
				c-12.391-4.139-23.236-10.856-32.301-20.322c-3.224-3.371-5.984-7.085-7.967-11.32c-2.386-5.103-3.505-10.374-1.847-15.943
				C143.496,334.985,146.617,331.237,150.662,328.033z"/>
		</g>
	</g>
</g>
</svg>
