<?xml version="1.0" encoding="utf-8"?>
<!-- Generator: Adobe Illustrator 16.2.1, SVG Export Plug-In . SVG Version: 6.00 Build 0)  -->
<!DOCTYPE svg PUBLIC "-//W3C//DTD SVG 1.1//EN" "http://www.w3.org/Graphics/SVG/1.1/DTD/svg11.dtd">
<svg version="1.1" id="Layer_1" xmlns="http://www.w3.org/2000/svg" xmlns:xlink="http://www.w3.org/1999/xlink" x="0px" y="0px"
	 width="90px" height="90px" viewBox="0 0 90 90" enable-background="new 0 0 90 90" xml:space="preserve">
<g>
	<path d="M68.721,20.673H21.28c-3.212,0-5.815,2.604-5.815,5.814v37.025c0,3.211,2.604,5.814,5.815,5.814h47.44
		c3.211,0,5.814-2.604,5.814-5.814V26.487C74.535,23.276,71.932,20.673,68.721,20.673z M41.162,52.302
		c0.443,0.5,0.986,0.861,1.59,1.137c0.852,0.389,1.754,0.6,2.685,0.619c1.759,0.037,3.518,0.035,5.276,0.043
		c1.23,0.004,2.461,0,3.691,0c1.328,0,2.554,0.893,2.922,2.174c0.371,1.291,0.311,2.572-0.217,3.814
		c-0.25,0.59-0.657,1.059-1.206,1.398C55.572,61.69,55.223,61.8,54.82,61.8c-4.232-0.01-8.465,0.014-12.697-0.02
		c-1.44-0.012-2.865-0.254-4.162-0.934c-0.456-0.238-0.871-0.576-1.258-0.922c-1.023-0.912-1.906-1.949-2.608-3.133
		c-0.657-1.107-1.067-2.295-1.192-3.58c-0.145-1.49-0.341-2.975-0.438-4.469c-0.071-1.09-0.021-2.189-0.021-3.285
		c-0.001-2.281,0-4.562,0-6.845c-0.001,0-0.002,0-0.003,0c0-2.486,0.03-4.973-0.016-7.458c-0.017-0.907,0.386-1.527,1.018-2.066
		c0.56-0.479,1.232-0.711,1.951-0.813c0.974-0.139,1.935-0.1,2.859,0.271c0.725,0.291,1.278,0.78,1.645,1.475
		c0.133,0.251,0.204,0.514,0.203,0.805c-0.008,1.957-0.007,3.914-0.008,5.871c0,0.349,0.001,0.35,0.353,0.35
		c4.749,0,9.498,0.006,14.246-0.005c1.153-0.002,1.926,0.562,2.453,1.526c0.265,0.482,0.369,1.018,0.41,1.562
		c0.068,0.917-0.018,1.811-0.452,2.641c-0.317,0.604-0.792,1.045-1.435,1.281c-0.192,0.071-0.408,0.107-0.613,0.107
		c-4.857,0.006-9.716,0.004-14.572,0.004c-0.385,0-0.385,0.001-0.385,0.393c0,1.599,0.01,3.2-0.004,4.8
		C40.085,50.474,40.418,51.46,41.162,52.302z"/>
</g>
</svg>
