<?xml version="1.0" encoding="utf-8"?>
<!-- Generator: Adobe Illustrator 16.2.1, SVG Export Plug-In . SVG Version: 6.00 Build 0)  -->
<!DOCTYPE svg PUBLIC "-//W3C//DTD SVG 1.1//EN" "http://www.w3.org/Graphics/SVG/1.1/DTD/svg11.dtd">
<svg version="1.1" id="Layer_1" xmlns="http://www.w3.org/2000/svg" xmlns:xlink="http://www.w3.org/1999/xlink" x="0px" y="0px"
	 width="90px" height="90px" viewBox="0 0 90 90" enable-background="new 0 0 90 90" xml:space="preserve">
<g>
	<g>
		<path fill="#231F20" d="M70.729,30.992H47.066c-0.302,1.624-0.959,3.184-1.959,4.675c-0.221,0.329-0.469,0.64-0.704,0.959
			c-0.051,0.068-0.103,0.136-0.192,0.255c0.27-0.029,0.483-0.05,0.696-0.076c1.62-0.196,3.243-0.216,4.868-0.061
			c2.193,0.209,4.309,0.719,6.344,1.562c1.719,0.712,3.324,1.616,4.723,2.858c1.039,0.924,1.896,1.987,2.426,3.289
			c0.375,0.924,0.523,1.879,0.326,2.871c-0.096,0.473-0.311,0.893-0.574,1.291c-0.344,0.52-0.764,0.975-1.213,1.402
			c-0.715,0.684-1.5,1.283-2.309,1.854c-0.084,0.061-0.168,0.121-0.232,0.168c0.174,0.189,0.336,0.367,0.504,0.543
			c0.768,0.805,1.289,1.736,1.445,2.85c0.178,1.279-0.072,2.467-0.801,3.539c-0.533,0.787-1.217,1.432-1.984,1.98
			c-0.463,0.332-0.955,0.625-1.436,0.934c-0.078,0.051-0.162,0.098-0.24,0.146c0.109,0.367,0.236,0.713,0.316,1.068
			c0.514,2.314-0.256,4.174-2.062,5.629c-0.965,0.777-2.107,1.217-3.291,1.541c-1.916,0.525-3.863,0.656-5.84,0.482
			c-3.435-0.303-6.194-1.875-8.424-4.447c-0.187-0.215-0.372-0.354-0.653-0.424c-1.621-0.408-2.912-1.328-3.914-2.648
			c-1.206-1.588-1.847-3.383-1.897-5.383c-0.027-1.076,0.014-2.148,0.273-3.201c0.203-0.826,0.529-1.596,1.034-2.285
			c0.028-0.039,0.052-0.082,0.084-0.133c-0.182-0.404-0.363-0.809-0.547-1.215c-0.486-1.076-0.943-2.164-1.222-3.316
			c-0.354-1.467-0.392-2.929,0.084-4.381c0.34-1.036,0.889-1.954,1.6-2.773c0.336-0.387,0.688-0.766,1.071-1.103
			c0.793-0.695,1.396-1.527,1.865-2.461c0.879-1.75,1.332-3.605,1.326-5.566c0-0.142-0.023-0.282-0.031-0.423H23.289
			c-3.211,0-5.814,2.604-5.814,5.815v37.026c0,3.211,2.604,5.814,5.814,5.814h47.44c3.213,0,5.816-2.604,5.816-5.814V36.808
			C76.545,33.596,73.942,30.992,70.729,30.992z"/>
	</g>
	<g id="HGrWGM_1_">
		<g>
			<path fill="none" d="M10.696,78.959c0-22.869,0-45.738,0-68.608c22.87,0,45.738,0,68.608,0c0,22.87,0,45.739,0,68.608
				C56.434,78.959,33.565,78.959,10.696,78.959z M31.138,52.258c-0.032,0.053-0.056,0.094-0.084,0.133
				c-0.504,0.689-0.831,1.459-1.034,2.285c-0.26,1.053-0.301,2.125-0.274,3.201c0.051,2,0.691,3.795,1.897,5.383
				c1.003,1.32,2.293,2.24,3.915,2.648c0.281,0.072,0.467,0.209,0.653,0.424c2.23,2.572,4.99,4.146,8.424,4.447
				c1.977,0.176,3.924,0.043,5.84-0.482c1.184-0.324,2.326-0.764,3.291-1.541c1.806-1.455,2.577-3.314,2.062-5.629
				c-0.08-0.355-0.207-0.701-0.316-1.068c0.078-0.049,0.161-0.096,0.24-0.146c0.48-0.309,0.973-0.602,1.436-0.934
				c0.768-0.549,1.451-1.193,1.984-1.98c0.728-1.072,0.979-2.26,0.801-3.539c-0.155-1.113-0.678-2.045-1.446-2.85
				c-0.167-0.176-0.329-0.354-0.503-0.543c0.064-0.047,0.148-0.107,0.233-0.168c0.808-0.57,1.592-1.168,2.308-1.852
				c0.449-0.43,0.869-0.885,1.214-1.404c0.263-0.398,0.478-0.818,0.573-1.291c0.197-0.992,0.049-1.947-0.326-2.871
				c-0.528-1.302-1.387-2.366-2.426-3.29c-1.397-1.243-3.004-2.147-4.723-2.858c-2.035-0.842-4.151-1.353-6.344-1.562
				c-1.625-0.155-3.248-0.136-4.868,0.061c-0.213,0.026-0.427,0.047-0.696,0.076c0.09-0.12,0.142-0.188,0.192-0.255
				c0.236-0.319,0.484-0.63,0.705-0.959c1.987-2.963,2.631-6.198,1.786-9.665c-0.741-3.04-2.286-5.653-4.549-7.825
				c-0.653-0.627-1.39-1.145-2.236-1.487c-0.686-0.277-1.389-0.394-2.13-0.271c-1.035,0.172-2.47,1.207-2.757,2.509
				c-0.134,0.61-0.189,1.224-0.187,1.843c0.006,1.155,0.146,2.298,0.351,3.433c0.278,1.542,0.579,3.08,0.864,4.621
				c0.159,0.856,0.303,1.717,0.306,2.591c0.006,1.96-0.447,3.816-1.326,5.566c-0.469,0.934-1.072,1.765-1.865,2.46
				c-0.384,0.337-0.735,0.716-1.071,1.103c-0.711,0.819-1.26,1.737-1.6,2.773c-0.477,1.453-0.439,2.915-0.084,4.381
				c0.278,1.152,0.735,2.24,1.222,3.316C30.774,51.449,30.956,51.854,31.138,52.258z"/>
			<path fill-rule="evenodd" clip-rule="evenodd" d="M31.138,52.258c-0.182-0.404-0.364-0.809-0.547-1.215
				c-0.487-1.076-0.943-2.164-1.222-3.316c-0.354-1.467-0.392-2.929,0.084-4.381c0.34-1.036,0.889-1.954,1.6-2.773
				c0.335-0.387,0.687-0.766,1.071-1.103c0.793-0.695,1.396-1.526,1.865-2.46c0.879-1.75,1.333-3.606,1.326-5.566
				c-0.003-0.874-0.147-1.735-0.306-2.591c-0.285-1.541-0.586-3.079-0.864-4.621c-0.205-1.134-0.345-2.277-0.351-3.433
				c-0.003-0.62,0.052-1.233,0.187-1.843c0.287-1.302,1.723-2.337,2.757-2.509c0.742-0.124,1.445-0.007,2.13,0.271
				c0.846,0.343,1.583,0.86,2.236,1.487c2.263,2.172,3.809,4.786,4.549,7.825c0.845,3.466,0.201,6.701-1.786,9.665
				c-0.221,0.329-0.469,0.64-0.705,0.959c-0.05,0.068-0.102,0.135-0.192,0.255c0.27-0.029,0.483-0.05,0.696-0.076
				c1.62-0.197,3.243-0.216,4.868-0.061c2.192,0.208,4.309,0.719,6.344,1.562c1.719,0.711,3.325,1.616,4.723,2.858
				c1.039,0.924,1.897,1.988,2.426,3.29c0.375,0.924,0.523,1.878,0.326,2.871c-0.096,0.473-0.311,0.893-0.573,1.291
				c-0.345,0.52-0.765,0.975-1.214,1.404c-0.716,0.684-1.5,1.281-2.308,1.852c-0.085,0.061-0.169,0.121-0.233,0.168
				c0.174,0.189,0.336,0.367,0.503,0.543c0.769,0.805,1.291,1.736,1.446,2.85c0.178,1.279-0.073,2.467-0.801,3.539
				c-0.533,0.787-1.217,1.432-1.984,1.98c-0.463,0.332-0.955,0.625-1.436,0.934c-0.079,0.051-0.162,0.098-0.24,0.146
				c0.109,0.367,0.236,0.713,0.316,1.068c0.515,2.314-0.257,4.174-2.062,5.629c-0.965,0.777-2.107,1.217-3.291,1.541
				c-1.916,0.525-3.864,0.658-5.84,0.482c-3.435-0.301-6.194-1.875-8.424-4.447c-0.186-0.215-0.372-0.352-0.653-0.424
				c-1.621-0.408-2.912-1.328-3.915-2.648c-1.206-1.588-1.847-3.383-1.897-5.383c-0.027-1.076,0.014-2.148,0.274-3.201
				c0.204-0.826,0.53-1.596,1.034-2.285C31.082,52.352,31.105,52.311,31.138,52.258z M43.931,46.08
				c0.043-0.025,0.077-0.041,0.107-0.064c0.799-0.589,1.678-1.035,2.592-1.416c1.39-0.579,2.828-0.992,4.314-1.237
				c0.291-0.048,0.294-0.045,0.426,0.212c-0.193,0.032-0.385,0.055-0.572,0.095c-1.191,0.256-2.31,0.711-3.403,1.232
				c-0.893,0.426-1.757,0.903-2.535,1.52c-0.511,0.404-0.995,0.838-1.172,1.531c-0.331-0.021-0.654-0.045-0.99-0.068
				c0.032-0.496,0.303-0.838,0.566-1.188c-0.031-0.039-0.052-0.072-0.079-0.098c-0.992-0.958-2.098-1.743-3.4-2.226
				c-0.959-0.356-1.938-0.44-2.939-0.208c-1.348,0.312-2.148,1.192-2.343,2.553c-0.106,0.742-0.025,1.469,0.161,2.186
				c0.403,1.555,1.177,2.918,2.17,4.166c0.963,1.209,2.087,2.232,3.462,2.961c0.887,0.473,1.832,0.717,2.837,0.744
				c1.437,0.041,2.833-0.199,4.213-0.568c2.615-0.697,5.073-1.775,7.414-3.125c1.446-0.832,2.816-1.775,4.029-2.932
				c0.696-0.664,1.326-1.383,1.769-2.248c0.386-0.756,0.472-1.545,0.3-2.371c-0.199-0.959-0.658-1.792-1.246-2.562
				c-0.922-1.209-2.109-2.098-3.434-2.812c-2.801-1.511-5.817-2.24-8.975-2.441c-1.667-0.105-3.327-0.021-4.98,0.22
				c-0.176,0.025-0.297,0.102-0.425,0.216c-0.607,0.54-1.223,1.07-1.838,1.602c-0.056,0.048-0.125,0.082-0.16,0.104
				c-0.117-0.089-0.213-0.161-0.32-0.242c0.112-0.09,0.187-0.151,0.263-0.211c1.154-0.908,2.198-1.926,3.069-3.114
				c1.783-2.431,2.606-5.143,2.321-8.157c-0.216-2.286-1.026-4.358-2.377-6.214c-0.823-1.13-1.799-2.102-3.007-2.824
				c-0.484-0.289-0.993-0.522-1.547-0.645c-0.904-0.199-1.626,0.12-2.089,0.923c-0.215,0.373-0.347,0.776-0.438,1.194
				c-0.254,1.167-0.235,2.348-0.154,3.527c0.111,1.614,0.368,3.21,0.713,4.79c0.306,1.405,0.398,2.817,0.184,4.24
				c-0.395,2.634-1.541,4.886-3.449,6.752c-0.449,0.439-0.875,0.905-1.276,1.389c-0.641,0.774-1.131,1.638-1.423,2.607
				c-0.387,1.286-0.34,2.579-0.085,3.878c0.27,1.373,0.73,2.686,1.242,3.982c0.013,0.033,0.032,0.062,0.065,0.125
				c0.409-0.408,0.831-0.754,1.328-1.039c0.051,0.109,0.09,0.191,0.135,0.287c-0.741,0.42-1.194,1.059-1.518,1.803
				c-0.046,0.105-0.087,0.215-0.127,0.322c-0.268,0.723-0.406,1.473-0.484,2.236c-0.109,1.061-0.158,2.129-0.011,3.188
				c0.37,2.678,1.756,4.664,4.133,5.957c0.062,0.035,0.13,0.057,0.237,0.104c-0.051-0.154-0.089-0.262-0.124-0.369
				c-0.395-1.244-0.147-2.332,0.804-3.238c0.216-0.205,0.467-0.373,0.703-0.561c0.059-0.045,0.118-0.092,0.182-0.141
				c-0.049-0.092-0.089-0.168-0.13-0.244c-0.257-0.48-0.465-0.979-0.616-1.502c-0.276-0.961-0.372-1.936-0.214-2.928
				c0.101-0.633,0.338-1.209,0.739-1.701c-0.014-0.033-0.018-0.053-0.029-0.066c-0.049-0.061-0.1-0.117-0.15-0.178
				c-0.977-1.141-1.783-2.387-2.329-3.791c-0.407-1.047-0.664-2.123-0.564-3.26c0.139-1.588,0.958-2.668,2.449-3.215
				c1.336-0.49,2.69-0.496,4.04-0.032c1.447,0.497,2.671,1.347,3.772,2.391C43.787,45.948,43.857,46.012,43.931,46.08z
				 M56.844,52.85c-0.132,0.08-0.24,0.143-0.345,0.209c-2.632,1.67-5.431,2.967-8.438,3.799c-1.337,0.369-2.695,0.611-4.085,0.672
				c-1.842,0.08-3.53-0.369-5.042-1.432c-0.49-0.344-0.946-0.736-1.417-1.107c-0.082-0.064-0.155-0.139-0.265-0.236
				c-0.111,0.242-0.223,0.447-0.3,0.662c-0.321,0.9-0.325,1.824-0.145,2.75c0.233,1.195,0.849,2.193,1.675,3.064
				c1.213,1.281,2.714,2.066,4.408,2.506c1.207,0.312,2.436,0.309,3.664,0.215c1.86-0.143,3.673-0.533,5.438-1.143
				c1.442-0.498,2.819-1.129,4.06-2.031c0.638-0.465,1.214-0.992,1.675-1.637c0.604-0.846,0.942-1.781,0.875-2.828
				C58.513,54.924,57.824,53.828,56.844,52.85z M37.214,61.113c-0.558,0.441-0.988,0.959-1.191,1.643
				c-0.229,0.77-0.074,1.494,0.254,2.197c0.273,0.584,0.654,1.098,1.098,1.561c1.25,1.305,2.744,2.23,4.452,2.801
				c2.344,0.785,4.746,0.986,7.19,0.629c0.932-0.137,1.836-0.385,2.688-0.801c1.026-0.498,1.83-1.223,2.289-2.289
				c0.564-1.312,0.511-2.635,0.03-3.959c-0.012-0.033-0.044-0.057-0.067-0.086c-0.066,0.025-0.12,0.045-0.174,0.066
				c-2.714,1.123-5.529,1.805-8.469,1.939c-0.942,0.043-1.876-0.012-2.792-0.266c-2.069-0.576-3.843-1.613-5.197-3.312
				C37.296,61.199,37.262,61.166,37.214,61.113z"/>
			<path fill-rule="evenodd" clip-rule="evenodd" fill="none" d="M43.931,46.08c-0.074-0.068-0.145-0.132-0.213-0.197
				c-1.101-1.044-2.325-1.894-3.772-2.391c-1.35-0.464-2.704-0.458-4.04,0.032c-1.491,0.547-2.31,1.627-2.449,3.215
				c-0.1,1.137,0.157,2.213,0.564,3.26c0.546,1.404,1.352,2.65,2.329,3.791c0.05,0.061,0.101,0.117,0.15,0.178
				c0.012,0.014,0.016,0.033,0.029,0.066c-0.401,0.492-0.639,1.068-0.739,1.701c-0.158,0.992-0.062,1.967,0.214,2.928
				c0.15,0.523,0.358,1.021,0.616,1.502c0.041,0.076,0.082,0.152,0.13,0.244c-0.064,0.049-0.123,0.096-0.182,0.141
				c-0.235,0.188-0.487,0.355-0.703,0.561c-0.952,0.906-1.199,1.994-0.804,3.238c0.034,0.107,0.072,0.215,0.124,0.369
				c-0.107-0.047-0.175-0.068-0.237-0.104c-2.377-1.293-3.764-3.279-4.133-5.957c-0.146-1.059-0.098-2.127,0.011-3.188
				c0.078-0.764,0.217-1.514,0.484-2.236c0.04-0.107,0.081-0.217,0.127-0.322c0.324-0.744,0.776-1.383,1.518-1.803
				c-0.045-0.096-0.084-0.178-0.135-0.287c-0.497,0.285-0.918,0.631-1.328,1.039c-0.033-0.062-0.052-0.092-0.065-0.125
				c-0.512-1.297-0.972-2.609-1.242-3.982c-0.255-1.299-0.302-2.592,0.085-3.878c0.292-0.969,0.782-1.833,1.423-2.607
				c0.401-0.484,0.827-0.95,1.276-1.389c1.908-1.867,3.054-4.119,3.449-6.752c0.214-1.423,0.122-2.834-0.184-4.24
				c-0.345-1.58-0.602-3.176-0.713-4.79c-0.081-1.18-0.1-2.361,0.154-3.527c0.091-0.418,0.223-0.822,0.438-1.194
				c0.463-0.803,1.185-1.122,2.089-0.923c0.554,0.122,1.063,0.355,1.547,0.645c1.208,0.722,2.185,1.693,3.007,2.824
				c1.351,1.856,2.161,3.928,2.377,6.214c0.285,3.015-0.539,5.726-2.321,8.157c-0.871,1.188-1.915,2.206-3.069,3.114
				c-0.076,0.06-0.15,0.121-0.263,0.211c0.107,0.081,0.203,0.153,0.32,0.242c0.035-0.023,0.104-0.056,0.16-0.104
				c0.615-0.532,1.23-1.062,1.838-1.602c0.127-0.114,0.249-0.19,0.425-0.216c1.653-0.241,3.313-0.326,4.98-0.22
				c3.157,0.201,6.174,0.93,8.975,2.441c1.324,0.714,2.512,1.603,3.434,2.812c0.588,0.77,1.047,1.602,1.246,2.562
				c0.172,0.826,0.086,1.615-0.3,2.371c-0.442,0.865-1.072,1.584-1.769,2.248c-1.213,1.156-2.583,2.1-4.029,2.932
				c-2.341,1.35-4.799,2.428-7.414,3.125c-1.379,0.369-2.776,0.609-4.213,0.568c-1.005-0.027-1.95-0.271-2.837-0.744
				c-1.375-0.729-2.499-1.752-3.462-2.961c-0.993-1.248-1.767-2.611-2.17-4.166c-0.186-0.717-0.267-1.443-0.161-2.186
				c0.195-1.361,0.996-2.241,2.343-2.553c1.001-0.232,1.979-0.148,2.939,0.208c1.302,0.483,2.408,1.268,3.4,2.226
				c0.027,0.025,0.047,0.059,0.079,0.098c-0.263,0.35-0.534,0.691-0.566,1.188c0.335,0.023,0.659,0.047,0.99,0.068
				c0.177-0.693,0.661-1.127,1.172-1.531c0.777-0.617,1.642-1.094,2.535-1.52c1.094-0.521,2.212-0.976,3.403-1.232
				c0.188-0.041,0.379-0.063,0.572-0.095c-0.132-0.257-0.135-0.261-0.426-0.212c-1.486,0.246-2.924,0.658-4.314,1.237
				c-0.914,0.381-1.792,0.827-2.592,1.416C44.008,46.039,43.974,46.055,43.931,46.08z"/>
			<path fill-rule="evenodd" clip-rule="evenodd" fill="none" d="M56.844,52.85c0.979,0.979,1.669,2.074,1.759,3.463
				c0.067,1.047-0.271,1.982-0.875,2.828c-0.461,0.645-1.037,1.172-1.675,1.637c-1.24,0.902-2.617,1.533-4.06,2.031
				c-1.765,0.609-3.577,1-5.438,1.143c-1.229,0.094-2.458,0.098-3.664-0.215c-1.693-0.439-3.194-1.225-4.408-2.506
				c-0.827-0.871-1.442-1.869-1.675-3.064c-0.18-0.926-0.177-1.85,0.145-2.75c0.077-0.215,0.188-0.42,0.3-0.662
				c0.11,0.098,0.184,0.172,0.265,0.236c0.47,0.371,0.927,0.764,1.417,1.107c1.511,1.062,3.199,1.512,5.042,1.432
				c1.391-0.061,2.749-0.303,4.085-0.672c3.007-0.832,5.806-2.129,8.438-3.799C56.604,52.992,56.712,52.93,56.844,52.85z"/>
			<path fill-rule="evenodd" clip-rule="evenodd" fill="none" d="M37.214,61.113c0.047,0.053,0.082,0.086,0.111,0.123
				c1.354,1.699,3.128,2.736,5.197,3.312c0.915,0.254,1.85,0.309,2.792,0.266c2.94-0.135,5.755-0.816,8.469-1.939
				c0.054-0.021,0.107-0.041,0.174-0.066c0.023,0.029,0.056,0.053,0.067,0.086c0.48,1.324,0.534,2.646-0.03,3.959
				c-0.459,1.066-1.263,1.791-2.289,2.289c-0.852,0.416-1.756,0.664-2.688,0.801c-2.445,0.357-4.847,0.156-7.19-0.629
				c-1.708-0.57-3.203-1.496-4.452-2.801c-0.444-0.463-0.825-0.977-1.098-1.561c-0.329-0.703-0.483-1.428-0.254-2.197
				C36.227,62.072,36.657,61.555,37.214,61.113z"/>
		</g>
	</g>
</g>
</svg>
